<?xml version="1.0" encoding="UTF-8"?>
<svg version="1.1" xmlns="http://www.w3.org/2000/svg" width="500" height="121">
<path d="M0 0 C2.475 0.495 2.475 0.495 5 1 C7.0625 4.1875 7.0625 4.1875 8.01953125 6.0859375 C8.97390427 7.94905614 10.04864756 9.60109968 11.25 11.3125 C13 14 13 14 13 16 C7.25 15.125 7.25 15.125 5 14 C5.24230347 14.83748779 5.24230347 14.83748779 5.48950195 15.69189453 C9.30370311 32.93697238 6.30622648 57.11800539 -2.90234375 72.09375 C-8.94654443 80.4678381 -16.49829486 90.03186667 -27.1875 92.125 C-31.93406873 91.9693748 -33.49727591 91.19813938 -37 88 C-42.53821123 81.33789749 -45.42142056 74.20721492 -46.375 65.625 C-44.8490142 50.87380389 -38.4900767 39.47755818 -27 30 C-26.34 30 -25.68 30 -25 30 C-25 29.34 -25 28.68 -25 28 C-22.93964679 26.62444627 -20.89280434 25.35929201 -18.75 24.125 C-14.71032292 21.78997786 -11.16093862 19.48955105 -8 16 C-8.66 14.68 -9.32 13.36 -10 12 C-6.7 8.04 -3.4 4.08 0 0 Z " fill="#7F3915" transform="translate(128,8)"/>
<path d="M0 0 C0.33 1.32 0.66 2.64 1 4 C2.36125 3.01 2.36125 3.01 3.75 2 C8.86694229 -0.90759043 14.28545654 -0.95637588 20 0 C22.63118048 1.41078137 23.97269707 2.74744118 26 5 C28.21493077 3.93355185 30.23347695 2.84086597 32.26953125 1.453125 C36.9573095 -1.04165828 41.82578814 -0.65931785 47 0 C50.52121839 2.04230667 51.75217677 3.62826516 54 7 C54.28710938 9.79980469 54.28710938 9.79980469 54.34375 13.171875 C54.37339844 14.39390625 54.40304687 15.6159375 54.43359375 16.875 C54.45550781 18.15375 54.47742188 19.4325 54.5 20.75 C54.4228121 31.59728128 54.4228121 31.59728128 57 42 C57.66 42.33 58.32 42.66 59 43 C59 43.66 59 44.32 59 45 C55.81496713 46.59251643 52.4667595 46.39129761 49 46 C45.76386646 44.25746655 45.17604685 43.52814056 44 40 C43.86058527 37.83709539 43.77466794 35.6705779 43.71875 33.50390625 C43.66267578 31.58288086 43.66267578 31.58288086 43.60546875 29.62304688 C43.56980291 28.26954458 43.53465189 26.91602863 43.5 25.5625 C43.432113 22.91776188 43.35836493 20.27341638 43.28125 17.62890625 C43.25095703 16.45400635 43.22066406 15.27910645 43.18945312 14.06860352 C43.03339811 11.54095466 42.73312063 9.40972595 42 7 C40.61135566 6.69443774 39.21318736 6.43199192 37.8125 6.1875 C37.03519531 6.03667969 36.25789063 5.88585938 35.45703125 5.73046875 C32.77418718 5.80800239 32.77418718 5.80800239 30.37036133 8.03955078 C27.46451066 11.66879635 27.39062354 14.19934985 27.6171875 18.63671875 C27.63847214 19.71769585 27.63847214 19.71769585 27.66018677 20.82051086 C27.70783434 23.11086894 27.78879658 25.39829355 27.875 27.6875 C27.95043049 29.98716891 28.01840939 32.28625647 28.06838989 34.58662415 C28.10043396 36.01494988 28.14770646 37.4430311 28.2116394 38.87028503 C28.26123047 40.82299805 28.26123047 40.82299805 28 44 C24.54337669 46.30441554 23.05142119 46.25860135 19 46 C18.34 45.67 17.68 45.34 17 45 C16.98018066 43.99098633 16.96036133 42.98197266 16.93994141 41.94238281 C16.86376664 38.19245804 16.77506784 34.44291529 16.68261719 30.69335938 C16.64437642 29.07169141 16.60951497 27.44994004 16.578125 25.828125 C16.53236743 23.49448883 16.47439184 21.16142438 16.4140625 18.828125 C16.40251129 18.10506165 16.39096008 17.38199829 16.37905884 16.63702393 C16.27230294 12.9813512 16.13185393 10.05145862 14 7 C11.54048544 5.77024272 10.21743376 5.98531489 7.5 6.25 C6.7059375 6.31703125 5.911875 6.3840625 5.09375 6.453125 C2.61864162 6.85177161 2.61864162 6.85177161 1 10 C0.75952354 12.68004202 0.62726502 15.26554203 0.5859375 17.94921875 C0.56657135 18.72183548 0.5472052 19.49445221 0.5272522 20.29048157 C0.46751521 22.7560424 0.42109514 25.22165007 0.375 27.6875 C0.33681475 29.3600463 0.29776269 31.03257305 0.2578125 32.70507812 C0.16181867 36.80322647 0.07776623 40.90146688 0 45 C-7.75 46.125 -7.75 46.125 -10 45 C-10.33 32.46 -10.66 19.92 -11 7 C-11.66 7 -12.32 7 -13 7 C-12.73828125 5.109375 -12.73828125 5.109375 -12 3 C-10.29296875 1.953125 -10.29296875 1.953125 -8.1875 1.25 C-7.15689453 0.88648438 -7.15689453 0.88648438 -6.10546875 0.515625 C-4 0 -4 0 0 0 Z " fill="#C89D6E" transform="translate(407,51)"/>
<path d="M0 0 C7.12846555 3.48720613 11.17815232 11.62042224 14.37109375 18.4921875 C14.98828125 20.97265625 14.98828125 20.97265625 14.390625 23.0390625 C12.65132475 25.43726201 10.68856989 27.1871798 8.42578125 29.09765625 C5.24082395 31.66736124 5.24082395 31.66736124 2.98828125 34.97265625 C2.32828125 34.97265625 1.66828125 34.97265625 0.98828125 34.97265625 C0.72273438 35.69839844 0.4571875 36.42414062 0.18359375 37.171875 C-1.01244823 39.97436553 -2.41500982 42.27744977 -4.13671875 44.78515625 C-4.67554688 45.57535156 -5.214375 46.36554687 -5.76953125 47.1796875 C-6.17945312 47.77136719 -6.589375 48.36304688 -7.01171875 48.97265625 C-10.29556964 47.57345022 -12.04611324 45.99754082 -14.26171875 43.22265625 C-19.84269692 36.65819361 -26.52067711 32.5165465 -34.0078125 28.3671875 C-36.01171875 26.97265625 -36.01171875 26.97265625 -37.01171875 23.97265625 C-35.50765452 17.06134271 -33.45816152 10.53070971 -29.01171875 4.97265625 C-24.41363746 5.5116005 -21.14387506 6.73837153 -17.13671875 9.03515625 C-16.16992188 9.58300781 -15.203125 10.13085938 -14.20703125 10.6953125 C-13.48257813 11.11683594 -12.758125 11.53835937 -12.01171875 11.97265625 C-11.76164062 11.40160156 -11.5115625 10.83054687 -11.25390625 10.2421875 C-9.83368941 7.6473888 -8.19369226 5.78310815 -6.13671875 3.66015625 C-5.11964844 2.58314453 -5.11964844 2.58314453 -4.08203125 1.484375 C-2.01171875 -0.02734375 -2.01171875 -0.02734375 0 0 Z " fill="#C4915A" transform="translate(90.01171875,9.02734375)"/>
<path d="M0 0 C2.31 0 4.62 0 7 0 C7.33 7.26 7.66 14.52 8 22 C9.98 20.68 11.96 19.36 14 18 C22.35823451 15.36055752 28.53718428 17.26859214 36 21 C36 21.66 36 22.32 36 23 C36.66 23 37.32 23 38 23 C43.11218571 31.74018847 44.23428139 39.24871287 42.609375 49.453125 C40.66129021 55.79688828 35.59684071 59.77055328 30.109375 63.171875 C25.15089672 65.11853684 18.65891898 64.99596796 13.6953125 63.13671875 C11.62320675 61.95450074 9.69571118 60.69571118 8 59 C7.67 60.32 7.34 61.64 7 63 C4.36 63 1.72 63 -1 63 C-2.32323027 60.35353946 -2.13437702 58.35225664 -2.14526367 55.38867188 C-2.15164352 54.21405396 -2.15802338 53.03943604 -2.16459656 51.82922363 C-2.16570938 50.55526733 -2.1668222 49.28131104 -2.16796875 47.96875 C-2.17129715 46.66675659 -2.17462555 45.36476318 -2.17805481 44.02331543 C-2.18404563 41.26602347 -2.18589471 38.50876286 -2.18530273 35.75146484 C-2.185201 32.21375156 -2.19886516 28.67623847 -2.21607494 25.13857269 C-2.22984713 21.76946179 -2.22928302 18.40038873 -2.23046875 15.03125 C-2.23765427 13.7572937 -2.24483978 12.4833374 -2.25224304 11.17077637 C-2.24916641 9.99615845 -2.24608978 8.82154053 -2.24291992 7.61132812 C-2.24434494 6.5736731 -2.24576996 5.53601807 -2.24723816 4.46691895 C-2 2 -2 2 0 0 Z M9.734375 29.6640625 C7.30454465 34.50443883 5.95266572 38.58528176 7 44 C8.33720638 47.8001222 10.04764928 50.9456117 12.75 53.9375 C17.4656102 56.16431593 21.38970869 56.52644139 26.25 54.9375 C30.11958153 52.21120392 32.31754049 49.52416531 33.5703125 44.890625 C34.4598332 39.402093 33.93906488 34.78678581 31 30 C27.45510424 26.54156512 24.68721844 25.75256986 19.875 25.625 C15.66674808 25.6905491 12.39262817 26.16895185 9.734375 29.6640625 Z " fill="#763F21" transform="translate(232,34)"/>
<path d="M0 0 C13.89599793 -0.99257128 27.12392583 3.41527768 38 12 C40.4076001 14.47597008 42.21140003 17.05603111 44 20 C45.01724669 21.52323468 46.03816941 23.04401998 47.0625 24.5625 C47.79533203 25.67625 47.79533203 25.67625 48.54296875 26.8125 C50.62015608 29.93106543 52.80393189 32.9642588 55 36 C42.90410663 39.42716979 32.19599744 37.64728927 21 32 C11.50845475 26.07953118 3.38489481 16.78935221 0 6 C-0.1875 2.5625 -0.1875 2.5625 0 0 Z " fill="#B27640" transform="translate(39,66)"/>
<path d="M0 0 C6.24987622 0.1434006 11.95107693 2.0052475 16.40625 6.4765625 C21.0179958 12.27904595 22.41122935 16.14607291 22.5 23.625 C22.52578125 24.92050781 22.5515625 26.21601562 22.578125 27.55078125 C22.0623341 33.46395554 19.41916998 38.14333002 15.25 42.3125 C8.25799842 47.14189009 1.64287307 48.52279302 -6.75 47.3125 C-13.06555578 45.60481951 -17.11826313 42.8669211 -20.75 37.3125 C-24.35678694 30.5369974 -24.74578552 23.54458845 -23 16.125 C-19.73563686 8.78018292 -17.16048455 4.75823114 -9.75 1.3125 C-6.45391027 0.41980903 -3.40531423 0.28377619 0 0 Z M-11.125 13.375 C-14.62837493 17.55210088 -14.13852922 21.75279724 -14.09765625 27.03125 C-13.57829555 31.93308132 -12.21707269 33.84542731 -8.75 37.3125 C-4.89444025 39.88287316 -1.35050303 39.31741197 3.06640625 38.796875 C5.43890771 38.27059561 7.19302282 37.60909886 9.25 36.3125 C12.49255776 30.18766867 14.08267069 24.47677094 12.1875 17.625 C10.54167443 13.23363813 8.56558889 11.34336536 4.25 9.3125 C-1.84688198 7.3666866 -6.38391049 9.25773806 -11.125 13.375 Z " fill="#713F21" transform="translate(202.75,50.6875)"/>
<path d="M0 0 C12.39794798 0.70011942 24.78648666 8.99954304 32.9453125 17.9375 C36.28356017 21.85325043 38.33266469 24.36761136 38.296875 29.640625 C38.18085937 30.89359375 38.06484375 32.1465625 37.9453125 33.4375 C37.83445313 34.70078125 37.72359375 35.9640625 37.609375 37.265625 C37.51398438 38.22984375 37.41859375 39.1940625 37.3203125 40.1875 C33.79093189 40.1875 32.94241887 39.43916025 30.0703125 37.5 C20.72767188 31.75277793 10.57758222 28.70691717 -0.38671875 28.42578125 C-2.6796875 28.1875 -2.6796875 28.1875 -4.6796875 26.1875 C-6.10107955 17.76231324 -6.01601971 9.42867183 -3.6796875 1.1875 C-2.6796875 0.1875 -2.6796875 0.1875 0 0 Z " fill="#CB8140" transform="translate(42.6796875,35.8125)"/>
<path d="M0 0 C6.14218291 3.67492127 9.70304604 8.57442448 11.5625 15.4375 C12.37600736 23.06176662 12.41049264 30.19214478 7.5625 36.4375 C2.38196546 42.05402012 -3.5069214 45.47775471 -11.25 45.9375 C-17.71104369 45.72081866 -23.1176274 43.18552852 -28.0703125 39.0859375 C-32.49683446 34.34134211 -34.5197566 27.82694291 -34.8125 21.4375 C-34.53901413 15.48026423 -32.91939591 10.23980584 -29.125 5.625 C-20.69382319 -1.23758578 -10.5992877 -4.80665373 0 0 Z M-23.4375 7.4375 C-26.14041776 15.75024706 -24.15508788 23.76747097 -20.48828125 31.41796875 C-17.96400227 36.09736339 -15.56981764 39.72672745 -10.4375 41.4375 C-5.35495961 41.96007524 -5.35495961 41.96007524 -1.0625 39.5625 C3.00237758 34.24689086 2.04398212 27.86394889 1.5625 21.4375 C0.03764852 14.73312581 -2.43778964 9.19332205 -7.4375 4.4375 C-14.0074835 0.73135546 -18.76019088 1.55745425 -23.4375 7.4375 Z " fill="#CB9D69" transform="translate(379.4375,52.5625)"/>
<path d="M0 0 C5.41693019 2.78219827 8.75560295 6.76095123 11.5 12.125 C12.9439935 19.77816553 13.51688412 28.64471922 9.125 35.4375 C3.88532898 41.29082619 -2.1674155 45.42474964 -10.1875 45.875 C-16.90945448 45.61116902 -23.30378319 43.22509988 -28.3125 38.6875 C-33.28363263 33.040406 -34.52101903 26.63987921 -34.28515625 19.24609375 C-33.20485582 11.84860796 -29.44608113 6.24045262 -23.71875 1.59375 C-16.59350469 -2.87462418 -7.76095636 -3.06492005 0 0 Z M-21.875 5.4375 C-25.69057266 13.64098121 -23.84093738 21.13692191 -21.1484375 29.3671875 C-18.80905643 35.00753571 -15.5689192 39.06138372 -9.875 41.4375 C-4.7877188 42.00445873 -4.7877188 42.00445873 -0.5 39.5625 C3.68561276 34.08900639 2.59826182 27.01715388 2.125 20.4375 C0.60596786 14.08893635 -2.21472569 8.98410908 -6.875 4.4375 C-11.97368392 1.56131933 -17.64988191 0.91058776 -21.875 5.4375 Z " fill="#C69B6A" transform="translate(329.875,52.5625)"/>
<path d="M0 0 C3.4375 0.1875 3.4375 0.1875 4.4375 1.1875 C4.54596473 2.59270985 4.58651094 4.00326008 4.59863281 5.41259766 C4.60824036 6.31088287 4.6178479 7.20916809 4.62774658 8.13467407 C4.63199646 9.11374725 4.63624634 10.09282043 4.640625 11.1015625 C4.64632507 12.1045639 4.65202515 13.10756531 4.65789795 14.14096069 C4.66736765 16.2712091 4.67388971 18.40147229 4.67773438 20.53173828 C4.68739711 23.77793409 4.71838427 27.02348538 4.75 30.26953125 C4.75653411 32.3385379 4.76178297 34.4075491 4.765625 36.4765625 C4.7779718 37.4434903 4.7903186 38.41041809 4.80303955 39.40664673 C4.77958253 46.57560121 3.82655868 51.43089383 -1 57 C-6.2499395 61.48165567 -10.48087519 61.67002196 -17.28125 61.578125 C-21.85616373 61.03349241 -25.28928738 59.4515182 -28.5625 56.1875 C-29.0575 54.7025 -29.0575 54.7025 -29.5625 53.1875 C-27.625 50.5 -27.625 50.5 -25.5625 48.1875 C-22.18787285 48.73473683 -20.48015 49.2424 -17.5625 51.1875 C-15.04665109 51.42900773 -15.04665109 51.42900773 -12.375 51.3125 C-11.47394531 51.29445312 -10.57289063 51.27640625 -9.64453125 51.2578125 C-8.95746094 51.23460937 -8.27039063 51.21140625 -7.5625 51.1875 C-6.7321086 48.27536656 -6.42558564 45.65865751 -6.38891602 42.63427734 C-6.37542618 41.74010101 -6.36193634 40.84592468 -6.34803772 39.9246521 C-6.33759933 38.96725128 -6.32716095 38.00985046 -6.31640625 37.0234375 C-6.28349005 34.99478699 -6.25027806 32.96614126 -6.21679688 30.9375 C-6.1692376 27.73993992 -6.1247545 24.54240224 -6.08569336 21.34472656 C-6.04612943 18.25826641 -5.99457294 15.172189 -5.94140625 12.0859375 C-5.9329921 11.12448822 -5.92457794 10.16303894 -5.91590881 9.17245483 C-5.89926682 8.28458282 -5.88262482 7.39671082 -5.86547852 6.48193359 C-5.85517105 5.69901947 -5.84486359 4.91610535 -5.83424377 4.10946655 C-5.29199899 0.27432316 -3.61566464 0.19029814 0 0 Z " fill="#80411E" transform="translate(169.5625,36.8125)"/>
<path d="M0 0 C0.02505615 1.20833496 0.0501123 2.41666992 0.07592773 3.66162109 C0.17160373 8.23542146 0.27140222 12.80912492 0.37231445 17.3828125 C0.41506891 19.34535421 0.45677194 21.30791916 0.49731445 23.27050781 C0.63364578 29.84807348 0.80210105 36.4240041 1 43 C1.03688934 44.34463318 1.03688934 44.34463318 1.07452393 45.71643066 C1.14931336 48.24155045 1.24482385 50.76494799 1.34765625 53.2890625 C1.36799423 54.04351654 1.38833221 54.79797058 1.4092865 55.57528687 C1.48384399 57.87966197 1.48384399 57.87966197 2 61 C2.99 61.66 3.98 62.32 5 63 C5 63.66 5 64.32 5 65 C1.84203893 66.57898053 -1.60670636 66.81928171 -5 66 C-7.42310722 64.34376527 -8.55071994 63.47160237 -10 61 C-10.75725747 56.95366254 -10.69728115 52.9467911 -10.671875 48.83984375 C-10.68462463 47.65781876 -10.69737427 46.47579376 -10.71051025 45.25794983 C-10.74682828 41.48422297 -10.74951934 37.71138631 -10.75 33.9375 C-10.77161788 30.16037564 -10.80009275 26.38338625 -10.83233643 22.6063385 C-10.85008544 20.25696795 -10.86037976 17.90752686 -10.86248779 15.55809021 C-10.86629456 14.49341019 -10.87010132 13.42873016 -10.87402344 12.33178711 C-10.87448669 11.39644638 -10.87494995 10.46110565 -10.87542725 9.49742126 C-10.99078253 7.18479082 -11.34631671 5.21393363 -12 3 C-10.75336669 2.49166409 -9.50250613 1.99368855 -8.25 1.5 C-7.55390625 1.2215625 -6.8578125 0.943125 -6.140625 0.65625 C-4 0 -4 0 0 0 Z " fill="#CD9E6C" transform="translate(290,31)"/>
<path d="M0 0 C2.475 0.495 2.475 0.495 5 1 C7.0625 4.1875 7.0625 4.1875 8.01953125 6.0859375 C8.97390427 7.94905614 10.04864756 9.60109968 11.25 11.3125 C13 14 13 14 13 16 C7.25 15.125 7.25 15.125 5 14 C5.24230347 14.83748779 5.24230347 14.83748779 5.48950195 15.69189453 C9.30370311 32.93697238 6.30622648 57.11800539 -2.90234375 72.09375 C-8.94654443 80.4678381 -16.49829486 90.03186667 -27.1875 92.125 C-31.93406873 91.9693748 -33.49727591 91.19813938 -37 88 C-39.28247417 85.15331873 -41.43560033 82.30532693 -43 79 C-42.67 78.01 -42.34 77.02 -42 76 C-41.401875 76.94875 -40.80375 77.8975 -40.1875 78.875 C-38.18437474 82.13964197 -38.18437474 82.13964197 -35 84 C-34.67 84.99 -34.34 85.98 -34 87 C-31.46384485 88.87863345 -30.22923013 89.02438618 -27.0625 88.6875 C-26.051875 88.460625 -25.04125 88.23375 -24 88 C-23.05125 87.814375 -22.1025 87.62875 -21.125 87.4375 C-20.42375 87.293125 -19.7225 87.14875 -19 87 C-19 86.34 -19 85.68 -19 85 C-17.28515625 83.5625 -17.28515625 83.5625 -15.0625 82 C-12.01367363 79.95183196 -12.01367363 79.95183196 -10 77 C-9.34 77 -8.68 77 -8 77 C-7.71898437 76.42894531 -7.43796875 75.85789062 -7.1484375 75.26953125 C-6.41203811 73.81426578 -5.64846271 72.37225484 -4.8515625 70.94921875 C3.77056869 55.05044818 3.52078352 39.62852205 3 22 C2.22398437 22.18820313 1.44796875 22.37640625 0.6484375 22.5703125 C-2 23 -2 23 -4.375 21.875 C-7.14766946 20.65703476 -7.14766946 20.65703476 -10.5 22.1875 C-13.93249225 23.90683052 -13.93249225 23.90683052 -16.8125 25.75 C-17.534375 26.1625 -18.25625 26.575 -19 27 C-19.66 26.67 -20.32 26.34 -21 26 C-20.31292969 25.52949219 -19.62585938 25.05898438 -18.91796875 24.57421875 C-18.01691406 23.95160156 -17.11585937 23.32898438 -16.1875 22.6875 C-15.29417969 22.07261719 -14.40085937 21.45773438 -13.48046875 20.82421875 C-11.43899254 19.32284963 -9.71537213 17.85214599 -8 16 C-8.66 14.68 -9.32 13.36 -10 12 C-6.7 8.04 -3.4 4.08 0 0 Z " fill="#7C3B1C" transform="translate(128,8)"/>
<path d="M0 0 C7.09113129 3.62341239 11.12542988 11.60155358 14.33984375 18.51953125 C14.95703125 21 14.95703125 21 14.3203125 23.08984375 C12.74674069 25.2946478 11.06185692 26.97009606 9.01953125 28.75 C7.98505859 29.67039062 7.98505859 29.67039062 6.9296875 30.609375 C4.95703125 32 4.95703125 32 1.95703125 32 C1.58578125 31.154375 1.21453125 30.30875 0.83203125 29.4375 C-1.94209973 24.3515932 -5.20726537 20.22380225 -10.04296875 17 C-10.04296875 16.34 -10.04296875 15.68 -10.04296875 15 C-11.03296875 14.67 -12.02296875 14.34 -13.04296875 14 C-11.65861264 9.81716058 -9.75301527 7.25104381 -6.66796875 4.125 C-5.89710937 3.32320312 -5.12625 2.52140625 -4.33203125 1.6953125 C-2.04296875 0 -2.04296875 0 0 0 Z " fill="#DFB887" transform="translate(90.04296875,9)"/>
<path d="M0 0 C1.875 0.6875 1.875 0.6875 2.875 1.6875 C3.03169843 3.1268524 3.12572139 4.57316503 3.19140625 6.01953125 C3.25424805 7.34114258 3.25424805 7.34114258 3.31835938 8.68945312 C3.35767578 9.61693359 3.39699219 10.54441406 3.4375 11.5 C3.48068359 12.41587891 3.52386719 13.33175781 3.56835938 14.27539062 C3.74324346 18.08675335 3.875 21.87087001 3.875 25.6875 C3.545 26.0175 3.215 26.3475 2.875 26.6875 C2.58150373 29.09179772 2.3590676 31.46161582 2.1875 33.875 C2.02701172 35.84533203 2.02701172 35.84533203 1.86328125 37.85546875 C1.87489123 41.65193074 2.55065693 44.17131781 3.875 47.6875 C3.59946428 51.5450001 2.43966038 53.81508038 -0.125 56.6875 C-1.115 57.1825 -1.115 57.1825 -2.125 57.6875 C-2.125 56.6975 -2.125 55.7075 -2.125 54.6875 C-2.785 54.6875 -3.445 54.6875 -4.125 54.6875 C-4.94246609 43.71254249 -5.33885546 32.78662866 -5.36523438 21.78222656 C-5.37518399 19.26596851 -5.40646128 16.75045114 -5.4375 14.234375 C-5.4440107 12.62760892 -5.44926869 11.02083715 -5.453125 9.4140625 C-5.4716452 8.29084091 -5.4716452 8.29084091 -5.49053955 7.14492798 C-5.48144531 5.05712891 -5.48144531 5.05712891 -5.125 1.6875 C-2.125 -0.3125 -2.125 -0.3125 0 0 Z " fill="#823E18" transform="translate(236.125,36.3125)"/>
<path d="M0 0 C1.670625 0.061875 1.670625 0.061875 3.375 0.125 C3.045 2.105 2.715 4.085 2.375 6.125 C2.045 5.465 1.715 4.805 1.375 4.125 C-1.15233235 3.46944881 -1.15233235 3.46944881 -3.625 3.125 C-3.61452637 4.40141357 -3.60405273 5.67782715 -3.59326172 6.99291992 C-3.55701719 11.73589261 -3.53408323 16.47885309 -3.51513672 21.22192383 C-3.50508931 23.27337707 -3.49144908 25.32481604 -3.47412109 27.3762207 C-3.44981754 30.32767262 -3.43850418 33.2789349 -3.4296875 36.23046875 C-3.41936493 37.14523483 -3.40904236 38.06000092 -3.39840698 39.00248718 C-3.39733221 45.12488483 -4.17749571 48.95374357 -7.625 54.125 C-6.965 54.125 -6.305 54.125 -5.625 54.125 C-5.295 53.465 -4.965 52.805 -4.625 52.125 C-3.655625 52.00125 -2.68625 51.8775 -1.6875 51.75 C1.49082828 51.4758355 1.49082828 51.4758355 2.75 49.0625 C2.95625 48.423125 3.1625 47.78375 3.375 47.125 C3.10579965 50.98353832 2.64210588 52.80595686 0.125 55.8125 C-5.76397466 60.76459233 -9.73926623 61.7155408 -17.37890625 61.55078125 C-21.92073023 60.9550426 -25.36867559 59.37217743 -28.625 56.125 C-29.12 54.64 -29.12 54.64 -29.625 53.125 C-27.6875 50.4375 -27.6875 50.4375 -25.625 48.125 C-22.25037285 48.67223683 -20.54265 49.1799 -17.625 51.125 C-15.10915109 51.36650773 -15.10915109 51.36650773 -12.4375 51.25 C-11.53644531 51.23195312 -10.63539063 51.21390625 -9.70703125 51.1953125 C-9.01996094 51.17210937 -8.33289063 51.14890625 -7.625 51.125 C-6.7946086 48.21286656 -6.48808564 45.59615751 -6.45141602 42.57177734 C-6.43792618 41.67760101 -6.42443634 40.78342468 -6.41053772 39.8621521 C-6.40009933 38.90475128 -6.38966095 37.94735046 -6.37890625 36.9609375 C-6.34599005 34.93228699 -6.31277806 32.90364126 -6.27929688 30.875 C-6.2317376 27.67743992 -6.1872545 24.47990224 -6.14819336 21.28222656 C-6.10862943 18.19576641 -6.05707294 15.109689 -6.00390625 12.0234375 C-5.9954921 11.06198822 -5.98707794 10.10053894 -5.97840881 9.10995483 C-5.96176682 8.22208282 -5.94512482 7.33421082 -5.92797852 6.41943359 C-5.91767105 5.63651947 -5.90736359 4.85360535 -5.89674377 4.04696655 C-5.34762911 0.16323449 -3.65859574 0.12615847 0 0 Z " fill="#80401F" transform="translate(169.625,36.875)"/>
<path d="M0 0 C0.66 0 1.32 0 2 0 C2 0.66 2 1.32 2 2 C2.66 2 3.32 2 4 2 C5.69140625 4.08203125 5.69140625 4.08203125 7.5625 6.8125 C8.18253906 7.70582031 8.80257812 8.59914063 9.44140625 9.51953125 C11 12 11 12 12 15 C11.00390625 18.13671875 11.00390625 18.13671875 9.5625 21.6875 C9.08941406 22.86699219 8.61632812 24.04648437 8.12890625 25.26171875 C7.75636719 26.16535156 7.38382813 27.06898437 7 28 C3 28 3 28 0.89453125 26.27734375 C-2.21545523 22.78225575 -4.66380932 19.9413339 -6.25 15.5 C-5.82717602 9.58046431 -3.25299351 4.87949026 0 0 Z " fill="#CE9C63" transform="translate(77,29)"/>
<path d="M0 0 C1.41170406 5.24821746 1.36450915 10.89965332 1.625 16.3125 C1.70234375 17.66118164 1.70234375 17.66118164 1.78125 19.03710938 C2.06600098 24.82844176 1.78490062 30.25382455 1 36 C1.66 36 2.32 36 3 36 C3 36.66 3 37.32 3 38 C0.6875 38.25 0.6875 38.25 -2 38 C-5.42348585 34.6914648 -5.41400183 31.65911365 -5.51171875 27.046875 C-5.52966995 26.38665344 -5.54762115 25.72643188 -5.56611633 25.04620361 C-5.62008809 22.94753311 -5.65407043 20.84908823 -5.6875 18.75 C-5.72068495 17.32288536 -5.75517571 15.89580044 -5.79101562 14.46875 C-5.8758047 10.97938348 -5.94267888 7.48993809 -6 4 C-6.99 4 -7.98 4 -9 4 C-9 3.34 -9 2.68 -9 2 C-11.31 1.34 -13.62 0.68 -16 0 C-16 -0.99 -16 -1.98 -16 -3 C-10.28872931 -4.9037569 -5.10006451 -2.84426675 0 0 Z " fill="#CD9C66" transform="translate(458,56)"/>
<path d="M0 0 C1.670625 0.061875 1.670625 0.061875 3.375 0.125 C3.045 1.445 2.715 2.765 2.375 4.125 C1.776875 3.939375 1.17875 3.75375 0.5625 3.5625 C-1.78908762 2.90406313 -1.78908762 2.90406313 -4.625 4.125 C-4.59470703 5.16205078 -4.56441406 6.19910156 -4.53320312 7.26757812 C-4.41906165 11.19638728 -4.30799466 15.12527885 -4.19775391 19.05419922 C-4.15006133 20.73944369 -4.1015867 22.42466625 -4.05224609 24.10986328 C-3.73056931 35.1190872 -3.5562085 46.11071652 -3.625 57.125 C-2.965 57.125 -2.305 57.125 -1.625 57.125 C-1.625 58.115 -1.625 59.105 -1.625 60.125 C-1.2125 59.34125 -0.8 58.5575 -0.375 57.75 C1.4142777 55.06608344 2.42488139 54.24401051 5.375 53.125 C5.519375 54.053125 5.66375 54.98125 5.8125 55.9375 C7.57788548 59.53888638 8.02566153 59.74779317 11.625 61 C18.329647 62.78576722 22.48671184 62.4057039 28.640625 59.29296875 C30.68012878 58.07930581 30.68012878 58.07930581 32.375 55.125 C32.0628236 52.47867713 32.0628236 52.47867713 31.375 50.125 C32.695 50.125 34.015 50.125 35.375 50.125 C37.02997356 46.81505287 36.47584335 43.13377 36.4375 39.5 C36.43298828 38.69820312 36.42847656 37.89640625 36.42382812 37.0703125 C36.41203168 35.08850994 36.39409605 33.10674567 36.375 31.125 C37.035 30.795 37.695 30.465 38.375 30.125 C40.68810545 37.06431634 40.59529069 46.62261879 37.55859375 53.37890625 C34.40909875 58.02519096 29.61355875 62.06838064 24.375 64.125 C16.9523494 65.02534972 11.43905082 64.5719706 5.375 60.125 C5.045 59.795 4.715 59.465 4.375 59.125 C4.045 60.445 3.715 61.765 3.375 63.125 C0.735 63.125 -1.905 63.125 -4.625 63.125 C-5.94823027 60.47853946 -5.75937702 58.47725664 -5.77026367 55.51367188 C-5.77664352 54.33905396 -5.78302338 53.16443604 -5.78959656 51.95422363 C-5.79070938 50.68026733 -5.7918222 49.40631104 -5.79296875 48.09375 C-5.79629715 46.79175659 -5.79962555 45.48976318 -5.80305481 44.14831543 C-5.80904563 41.39102347 -5.81089471 38.63376286 -5.81030273 35.87646484 C-5.810201 32.33875156 -5.82386516 28.80123847 -5.84107494 25.26357269 C-5.85484713 21.89446179 -5.85428302 18.52538873 -5.85546875 15.15625 C-5.86265427 13.8822937 -5.86983978 12.6083374 -5.87724304 11.29577637 C-5.87416641 10.12115845 -5.87108978 8.94654053 -5.86791992 7.73632812 C-5.86934494 6.6986731 -5.87076996 5.66101807 -5.87223816 4.59191895 C-5.44881523 0.36704504 -4.09904457 0.14134636 0 0 Z " fill="#713D22" transform="translate(235.625,33.875)"/>
<path d="M0 0 C1.65 0.66 3.3 1.32 5 2 C5.0580476 5.27075883 5.09361165 8.54138524 5.125 11.8125 C5.14175781 12.74126953 5.15851563 13.67003906 5.17578125 14.62695312 C5.18544922 15.9659668 5.18544922 15.9659668 5.1953125 17.33203125 C5.21102295 18.56530151 5.21102295 18.56530151 5.22705078 19.82348633 C5 22 5 22 3 25 C2.01 25 1.02 25 0 25 C0.33 26.65 0.66 28.3 1 30 C0.34 30 -0.32 30 -1 30 C-1.33 30.99 -1.66 31.98 -2 33 C-6.26879845 36.04623087 -10.75916713 37.85564618 -16 37 C-24.26019408 34.25127667 -24.26019408 34.25127667 -26.265625 30.859375 C-26.50796875 30.24578125 -26.7503125 29.6321875 -27 29 C-25.58318366 29.31182069 -24.16655349 29.62448737 -22.75 29.9375 C-21.56664062 30.19853516 -21.56664062 30.19853516 -20.359375 30.46484375 C-19.58078125 30.64144531 -18.8021875 30.81804687 -18 31 C-17.28328125 31.14566406 -16.5665625 31.29132813 -15.828125 31.44140625 C-14 32 -14 32 -12 34 C-9.39719432 33.67958603 -9.39719432 33.67958603 -7 33 C-7.99 32.34 -8.98 31.68 -10 31 C-8.7934375 30.6596875 -8.7934375 30.6596875 -7.5625 30.3125 C-6.716875 29.879375 -5.87125 29.44625 -5 29 C-4.32041397 26.60280568 -4.32041397 26.60280568 -4 24 C-3.49210937 23.40832031 -2.98421875 22.81664063 -2.4609375 22.20703125 C-0.50319181 19.24947426 -0.84602405 17.54459703 -1.25 14.0625 C-1.35828125 13.04285156 -1.4665625 12.02320312 -1.578125 10.97265625 C-1.95922337 8.28732424 -2.43351615 5.65173043 -3 3 C-2.01 2.67 -1.02 2.34 0 2 C0 1.34 0 0.68 0 0 Z " fill="#81401D" transform="translate(268,60)"/>
<path d="M0 0 C-0.66 1.65 -1.32 3.3 -2 5 C-1.01 5.33 -0.02 5.66 1 6 C1 16.89 1 27.78 1 39 C-2.465 39.495 -2.465 39.495 -6 40 C-5.99476318 38.96069336 -5.98952637 37.92138672 -5.98413086 36.85058594 C-5.9660102 32.98910384 -5.95454214 29.12762548 -5.94506836 25.26611328 C-5.94004431 23.59585945 -5.93322395 21.92561001 -5.92456055 20.25537109 C-5.91241054 17.85252804 -5.90675237 15.44974321 -5.90234375 13.046875 C-5.89460182 11.9294693 -5.89460182 11.9294693 -5.88670349 10.78948975 C-5.88633636 7.38497809 -5.92669082 4.25335241 -7 1 C-3.375 -1.125 -3.375 -1.125 0 0 Z " fill="#CD9B66" transform="translate(404,55)"/>
<path d="M0 0 C0.33 0.99 0.66 1.98 1 3 C-1.14019719 5.14019719 -2.05822006 5.39561281 -4.875 6.1875 C-8.45610248 7.53285066 -10.56684163 8.98183476 -12.32421875 12.55078125 C-13.87899361 18.18571673 -13.85030035 24.18416861 -14 30 C-12.68 30.33 -11.36 30.66 -10 31 C-9.875 36.75 -9.875 36.75 -11 39 C-15.21779303 37.49364535 -16.7747674 34.75987578 -19 31 C-21.37790964 23.86627109 -20.9633513 16.06095042 -17.6875 9.3125 C-15.18944081 4.72897399 -12.39415993 2.99007278 -7.5 1.375 C-6.7265625 1.11460938 -5.953125 0.85421875 -5.15625 0.5859375 C-3 0 -3 0 0 0 Z " fill="#813D19" transform="translate(201,53)"/>
<path d="M0 0 C3.76690636 1.73857216 6.21232537 3.90258375 9 7 C9 7.66 9 8.32 9 9 C9.99 9.33 10.98 9.66 12 10 C13.99396257 12.66083969 16 15.61242325 16 19 C16.66 19.33 17.32 19.66 18 20 C17.67 20.66 17.34 21.32 17 22 C16.34 22 15.68 22 15 22 C14.731875 22.78375 14.46375 23.5675 14.1875 24.375 C13 27 13 27 10 29 C10.680625 27.2984375 10.680625 27.2984375 11.375 25.5625 C12.15628009 22.57556524 12.18777962 21.39063185 10.83203125 18.5703125 C9.75596588 17.01116791 8.63948981 15.47897424 7.48046875 13.98046875 C6 12 6 12 5 9 C4.34 9 3.68 9 3 9 C3 8.34 3 7.68 3 7 C-1.50436669 11.06554587 -3.82910195 16.56470274 -4.25 22.5625 C-4.12625 23.7690625 -4.12625 23.7690625 -4 25 C-6.97 23.02 -9.94 21.04 -13 19 C-12.01 18.67 -11.02 18.34 -10 18 C-9.34 18.33 -8.68 18.66 -8 19 C-7.979375 17.906875 -7.95875 16.81375 -7.9375 15.6875 C-7.23512845 9.57467257 -3.45858355 4.91245287 0 0 Z " fill="#C89054" transform="translate(76,22)"/>
<path d="M0 0 C0.639375 0.639375 1.27875 1.27875 1.9375 1.9375 C5.92182511 4.62082099 9.24218478 5.10908571 14 5 C17.28861095 4.1552144 17.28861095 4.1552144 20 3 C22.33333333 3 24.66666667 3 27 3 C27 4.32 27 5.64 27 7 C21.88888889 11 21.88888889 11 19 11 C19 11.66 19 12.32 19 13 C16.28344597 14.35827701 14.09210594 14.1323445 11.0625 14.125 C9.47115234 14.12886719 9.47115234 14.12886719 7.84765625 14.1328125 C5 14 5 14 2 13 C2 12.01 2 11.02 2 10 C0.68 9.34 -0.64 8.68 -2 8 C-1.67 7.01 -1.34 6.02 -1 5 C-0.65179959 3.33637583 -0.31595508 1.67004829 0 0 Z " fill="#764429" transform="translate(191,84)"/>
<path d="M0 0 C0.33 1.32 0.66 2.64 1 4 C2.32 3.34 3.64 2.68 5 2 C5.33 3.32 5.66 4.64 6 6 C5.01 6.33 4.02 6.66 3 7 C0.52886419 10.70670372 0.65211411 13.65192181 0.5859375 17.94921875 C0.56657135 18.72183548 0.5472052 19.49445221 0.5272522 20.29048157 C0.46751521 22.7560424 0.42109514 25.22165007 0.375 27.6875 C0.33681475 29.3600463 0.29776269 31.03257305 0.2578125 32.70507812 C0.16181867 36.80322647 0.07776623 40.90146688 0 45 C-7.75 46.125 -7.75 46.125 -10 45 C-10.33 32.46 -10.66 19.92 -11 7 C-11.66 7 -12.32 7 -13 7 C-12.73828125 5.109375 -12.73828125 5.109375 -12 3 C-10.29296875 1.953125 -10.29296875 1.953125 -8.1875 1.25 C-7.15689453 0.88648438 -7.15689453 0.88648438 -6.10546875 0.515625 C-4 0 -4 0 0 0 Z M-8.1875 3.9375 C-8.785625 4.288125 -9.38375 4.63875 -10 5 C-9.83701416 5.82902832 -9.67402832 6.65805664 -9.50610352 7.51220703 C-8.95624562 11.30153164 -8.87382514 14.98731179 -8.90234375 18.8046875 C-8.9037587 19.5286673 -8.90517365 20.25264709 -8.90663147 20.99856567 C-8.91218925 23.29075407 -8.92473367 25.58284157 -8.9375 27.875 C-8.94252047 29.43749858 -8.94708241 30.99999871 -8.95117188 32.5625 C-8.96214481 36.37503835 -8.9793799 40.18750212 -9 44 C-5.535 43.505 -5.535 43.505 -2 43 C-2 32.11 -2 21.22 -2 10 C-2.99 9.67 -3.98 9.34 -5 9 C-4.34 7.35 -3.68 5.7 -3 4 C-5.89186786 2.66695302 -5.89186786 2.66695302 -8.1875 3.9375 Z " fill="#C3A179" transform="translate(407,51)"/>
<path d="M0 0 C0.33 0 0.66 0 1 0 C1.40965441 24.38389101 0.83615566 45.67101032 -16.5703125 64.58984375 C-21.08340408 69.06665646 -25.82691606 72.87948641 -32.1875 74.125 C-36.93406873 73.9693748 -38.49727591 73.19813938 -42 70 C-44.28247417 67.15331873 -46.43560033 64.30532693 -48 61 C-47.67 60.01 -47.34 59.02 -47 58 C-46.401875 58.94875 -45.80375 59.8975 -45.1875 60.875 C-43.18437474 64.13964197 -43.18437474 64.13964197 -40 66 C-39.67 66.99 -39.34 67.98 -39 69 C-36.46384485 70.87863345 -35.22923013 71.02438618 -32.0625 70.6875 C-31.051875 70.460625 -30.04125 70.23375 -29 70 C-28.05125 69.814375 -27.1025 69.62875 -26.125 69.4375 C-25.42375 69.293125 -24.7225 69.14875 -24 69 C-24 68.34 -24 67.68 -24 67 C-22.28515625 65.5625 -22.28515625 65.5625 -20.0625 64 C-17.01367363 61.95183196 -17.01367363 61.95183196 -15 59 C-14.34 59 -13.68 59 -13 59 C-12.71898437 58.42894531 -12.43796875 57.85789063 -12.1484375 57.26953125 C-11.41203811 55.81426578 -10.64846271 54.37225484 -9.8515625 52.94921875 C-1.28253386 37.14836657 -1.31797893 21.06222043 -1.1418457 3.53759766 C-1 1 -1 1 0 0 Z " fill="#5D321A" transform="translate(133,26)"/>
<path d="M0 0 C2.625 -0.1875 2.625 -0.1875 5 0 C4.84660156 0.64324219 4.69320313 1.28648438 4.53515625 1.94921875 C3.84253326 5.89767537 3.64199119 9.8131887 3.4375 13.8125 C3.39431641 14.60076172 3.35113281 15.38902344 3.30664062 16.20117188 C3.20121679 18.13394215 3.10016906 20.06695026 3 22 C2.34 22 1.68 22 1 22 C1.33 22.99 1.66 23.98 2 25 C2.99 25.33 3.98 25.66 5 26 C4.625 28.4375 4.625 28.4375 4 31 C3.34 31.33 2.68 31.66 2 32 C1.01 31.67 0.02 31.34 -1 31 C-3.87021623 23.55461004 -6.60853082 13.21281881 -3.6875 5.5625 C-2.46399845 3.70459024 -1.23397852 1.85096778 0 0 Z " fill="#D09C64" transform="translate(351,57)"/>
<path d="M0 0 C1.6274637 0.61855631 3.25190356 1.24507305 4.875 1.875 C5.77992188 2.22304688 6.68484375 2.57109375 7.6171875 2.9296875 C10 4 10 4 12 6 C12 6.99 12 7.98 12 9 C14.475 9.99 14.475 9.99 17 11 C16.88570603 12.77155654 16.75816963 14.54226229 16.625 16.3125 C16.55539063 17.29863281 16.48578125 18.28476563 16.4140625 19.30078125 C16 22 16 22 14 25 C13.83300768 28.12521833 13.83300768 28.12521833 14 31 C12.68 31 11.36 31 10 31 C10.02320313 30.03578125 10.04640625 29.0715625 10.0703125 28.078125 C10.08835938 26.81484375 10.10640625 25.5515625 10.125 24.25 C10.14820313 22.99703125 10.17140625 21.7440625 10.1953125 20.453125 C9.85221884 14.38722914 7.24590864 12.14234989 3 8 C2 6.66666667 1 5.33333333 0 4 C-0.66 3.67 -1.32 3.34 -2 3 C-1.34 2.01 -0.68 1.02 0 0 Z " fill="#803E1A" transform="translate(207,53)"/>
<path d="M0 0 C2.7731801 1.25223055 3.67598144 2.90754959 5.265625 5.47265625 C5.78640625 6.29894531 6.3071875 7.12523437 6.84375 7.9765625 C7.23046875 8.61464844 7.6171875 9.25273437 8.015625 9.91015625 C7.685625 10.57015625 7.355625 11.23015625 7.015625 11.91015625 C5.035625 11.25015625 3.055625 10.59015625 1.015625 9.91015625 C1.056875 11.02390625 1.098125 12.13765625 1.140625 13.28515625 C1.015625 16.91015625 1.015625 16.91015625 -0.984375 18.91015625 C-2.634375 17.92015625 -4.284375 16.93015625 -5.984375 15.91015625 C-5.40853068 13.52451548 -4.76209905 11.24332841 -3.984375 8.91015625 C-5.304375 9.24015625 -6.624375 9.57015625 -7.984375 9.91015625 C-7.01835179 5.40204792 -5.67302962 -0.25684977 0 0 Z " fill="#7A3F1C" transform="translate(129.984375,10.08984375)"/>
<path d="M0 0 C9.535245 0.8609702 18.2223376 5.12659286 24.94921875 11.98828125 C26.43424628 13.93323856 27.72976839 15.90924611 29 18 C30.01724669 19.52323468 31.03816941 21.04401998 32.0625 22.5625 C32.79533203 23.67625 32.79533203 23.67625 33.54296875 24.8125 C35.62015608 27.93106543 37.80393189 30.9642588 40 34 C37.36 34.33 34.72 34.66 32 35 C32.495 34.01 32.495 34.01 33 33 C31.55305741 28.44593858 28.98932669 24.93719005 26.2421875 21.0859375 C25 19 25 19 25 16 C23.68 15.67 22.36 15.34 21 15 C21 13.35 21 11.7 21 10 C20.401875 9.855625 19.80375 9.71125 19.1875 9.5625 C17.43849596 9.1127561 15.71322977 8.57107659 14 8 C14 7.34 14 6.68 14 6 C13.40832031 5.80664062 12.81664063 5.61328125 12.20703125 5.4140625 C8.0853355 4.05585281 4.0049476 2.67949415 0 1 C0 0.67 0 0.34 0 0 Z " fill="#9A7352" transform="translate(54,68)"/>
<path d="M0 0 C1.670625 0.061875 1.670625 0.061875 3.375 0.125 C3.045 2.105 2.715 4.085 2.375 6.125 C2.045 5.465 1.715 4.805 1.375 4.125 C-1.15233235 3.46944881 -1.15233235 3.46944881 -3.625 3.125 C-3.61452637 4.40141357 -3.60405273 5.67782715 -3.59326172 6.99291992 C-3.55701719 11.73589261 -3.53408323 16.47885309 -3.51513672 21.22192383 C-3.50508931 23.27337707 -3.49144908 25.32481604 -3.47412109 27.3762207 C-3.44981754 30.32767262 -3.43850418 33.2789349 -3.4296875 36.23046875 C-3.41936493 37.14523483 -3.40904236 38.06000092 -3.39840698 39.00248718 C-3.39695336 47.28295443 -3.39695336 47.28295443 -5.625 51.125 C-7.75 51.9375 -7.75 51.9375 -9.625 52.125 C-8.635 51.63 -8.635 51.63 -7.625 51.125 C-6.6388273 48.27009998 -6.48782435 45.57460693 -6.45141602 42.57177734 C-6.43792618 41.67760101 -6.42443634 40.78342468 -6.41053772 39.8621521 C-6.40009933 38.90475128 -6.38966095 37.94735046 -6.37890625 36.9609375 C-6.34599005 34.93228699 -6.31277806 32.90364126 -6.27929688 30.875 C-6.2317376 27.67743992 -6.1872545 24.47990224 -6.14819336 21.28222656 C-6.10862943 18.19576641 -6.05707294 15.109689 -6.00390625 12.0234375 C-5.9954921 11.06198822 -5.98707794 10.10053894 -5.97840881 9.10995483 C-5.96176682 8.22208282 -5.94512482 7.33421082 -5.92797852 6.41943359 C-5.91767105 5.63651947 -5.90736359 4.85360535 -5.89674377 4.04696655 C-5.34762911 0.16323449 -3.65859574 0.12615847 0 0 Z " fill="#682F1C" transform="translate(169.625,36.875)"/>
<path d="M0 0 C0 0.66 0 1.32 0 2 C0.66 2 1.32 2 2 2 C3.625 4.5 3.625 4.5 5 7 C4.401875 6.79375 3.80375 6.5875 3.1875 6.375 C0.71549154 5.69328085 0.71549154 5.69328085 -2 8 C-1.79761719 9.25296875 -1.59523438 10.5059375 -1.38671875 11.796875 C-1.15222438 13.44771538 -0.91922947 15.09876924 -0.6875 16.75 C-0.55021484 17.575 -0.41292969 18.4 -0.27148438 19.25 C0.04042708 21.59406182 0.26239189 23.64814907 0 26 C-2.45703125 28.578125 -2.45703125 28.578125 -5 30 C-4.649375 28.865625 -4.29875 27.73125 -3.9375 26.5625 C-2.50551344 20.79363986 -2.83823415 15.54482044 -5.3125 10.125 C-7.02522601 7.96823392 -8.7024983 6.50525974 -11 5 C-7.88742431 5 -5.89234315 5.17361624 -3 6 C-3 4.68 -3 3.36 -3 2 C-3.99 1.67 -4.98 1.34 -6 1 C-6 0.01 -6 -0.98 -6 -2 C-14.415 -1.505 -14.415 -1.505 -23 -1 C-22.67 -1.66 -22.34 -2.32 -22 -3 C-13.5468814 -5.56155109 -7.52838067 -3.76419034 0 0 Z " fill="#6D3B1F" transform="translate(268,55)"/>
<path d="M0 0 C0 0.33 0 0.66 0 1 C-2.31 1 -4.62 1 -7 1 C-7 2.98 -7 4.96 -7 7 C-7.639375 6.360625 -8.27875 5.72125 -8.9375 5.0625 C-12.87103627 2.41338374 -16.26574946 1.59763151 -21 2 C-24.04753335 3.74944076 -24.04753335 3.74944076 -26 6 C-26.99 4.68 -27.98 3.36 -29 2 C-19.64005651 -4.44796107 -10.31557329 -4.76103383 0 0 Z " fill="#C59F74" transform="translate(333,54)"/>
<path d="M0 0 C1.63001953 0.01353516 1.63001953 0.01353516 3.29296875 0.02734375 C4.12441406 0.03894531 4.95585937 0.05054688 5.8125 0.0625 C5.4825 2.0425 5.1525 4.0225 4.8125 6.0625 C3.99265625 5.94390625 3.1728125 5.8253125 2.328125 5.703125 C1.25046875 5.57421875 0.1728125 5.4453125 -0.9375 5.3125 C-2.00484375 5.17328125 -3.0721875 5.0340625 -4.171875 4.890625 C-7.26686354 4.78928285 -7.26686354 4.78928285 -9.515625 6.796875 C-13.55514247 12.27098746 -12.60564009 19.67178683 -11.6875 26.125 C-11.5225 27.094375 -11.3575 28.06375 -11.1875 29.0625 C-12.66796875 28.0234375 -12.66796875 28.0234375 -14.1875 26.0625 C-14.55078125 22.6640625 -14.55078125 22.6640625 -14.5 18.6875 C-14.49613281 17.38039063 -14.49226563 16.07328125 -14.48828125 14.7265625 C-14.21215863 11.3628869 -13.64609605 9.07267034 -12.1875 6.0625 C-13.1775 5.7325 -14.1675 5.4025 -15.1875 5.0625 C-9.78212877 1.33879982 -6.55171114 -0.07044851 0 0 Z " fill="#BA9C81" transform="translate(368.1875,50.9375)"/>
<path d="M0 0 C0.99 0.66 1.98 1.32 3 2 C2.4634127 6.56099209 0.53342375 9.23824958 -2 13 C-3.73258037 17.15819288 -4.21395545 20.5069356 -4 25 C-6.97 23.02 -9.94 21.04 -13 19 C-12.01 18.67 -11.02 18.34 -10 18 C-9.34 18.33 -8.68 18.66 -8 19 C-7.979375 17.906875 -7.95875 16.81375 -7.9375 15.6875 C-7.23512845 9.57467257 -3.45858355 4.91245287 0 0 Z " fill="#AF753C" transform="translate(76,22)"/>
<path d="M0 0 C0 0.66 0 1.32 0 2 C-1.98 2.33 -3.96 2.66 -6 3 C-5.67435562 3.55760513 -5.34871124 4.11521027 -5.01319885 4.68971252 C-3.85809659 7.32356696 -3.76409004 9.09870261 -3.78881836 11.96459961 C-3.79219711 12.94919662 -3.79557587 13.93379364 -3.79905701 14.94822693 C-3.81251663 16.00558548 -3.82597626 17.06294403 -3.83984375 18.15234375 C-3.84504532 19.24462784 -3.85024689 20.33691193 -3.85560608 21.46229553 C-3.87342087 24.95416545 -3.90458382 28.44574229 -3.9375 31.9375 C-3.96514374 35.42565883 -3.98986404 38.91377489 -4.00868225 42.4019928 C-4.02090778 44.57230904 -4.03848035 46.74260327 -4.06199646 48.91282654 C-4.07179283 50.3944503 -4.07179283 50.3944503 -4.08178711 51.90600586 C-4.09004013 52.77108261 -4.09829315 53.63615936 -4.10679626 54.52745056 C-3.99531209 57.10853462 -3.57078872 59.48378143 -3 62 C-0.03 62.66 2.94 63.32 6 64 C6 63.34 6 62.68 6 62 C6.99 62 7.98 62 9 62 C9 62.66 9 63.32 9 64 C5.84203893 65.57898053 2.39329364 65.81928171 -1 65 C-3.42310722 63.34376527 -4.55071994 62.47160237 -6 60 C-6.75725747 55.95366254 -6.69728115 51.9467911 -6.671875 47.83984375 C-6.68462463 46.65781876 -6.69737427 45.47579376 -6.71051025 44.25794983 C-6.74682828 40.48422297 -6.74951934 36.71138631 -6.75 32.9375 C-6.77161788 29.16037564 -6.80009275 25.38338625 -6.83233643 21.6063385 C-6.85008544 19.25696795 -6.86037976 16.90752686 -6.86248779 14.55809021 C-6.86629456 13.49341019 -6.87010132 12.42873016 -6.87402344 11.33178711 C-6.87448669 10.39644638 -6.87494995 9.46110565 -6.87542725 8.49742126 C-6.99078253 6.18479082 -7.34631671 4.21393363 -8 2 C-4.91190305 0.23537317 -3.76687864 0 0 0 Z " fill="#BB9873" transform="translate(286,32)"/>
<path d="M0 0 C0.33 0.99 0.66 1.98 1 3 C1.66 3 2.32 3 3 3 C3.96070434 5.88211302 4.10581883 7.69850044 4.0625 10.6875 C4.05347656 11.49574219 4.04445313 12.30398437 4.03515625 13.13671875 C4.02355469 13.75160156 4.01195312 14.36648437 4 15 C4.66 15.33 5.32 15.66 6 16 C4.75 18 4.75 18 3 20 C1.68 20 0.36 20 -1 20 C-1.09087891 19.04287109 -1.09087891 19.04287109 -1.18359375 18.06640625 C-1.26738281 17.24011719 -1.35117187 16.41382812 -1.4375 15.5625 C-1.51871094 14.73878906 -1.59992188 13.91507813 -1.68359375 13.06640625 C-1.78930815 11.01337975 -1.78930815 11.01337975 -3 10 C-3.14115161 7.32941149 -3.04247107 4.67567762 -3 2 C-2.01 2 -1.02 2 0 2 C0 1.34 0 0.68 0 0 Z " fill="#CF9D63" transform="translate(385,65)"/>
<path d="M0 0 C0.33 0.99 0.66 1.98 1 3 C0.05125 3.7425 -0.8975 4.485 -1.875 5.25 C-4.38559632 7.31962507 -5.62508726 9.03864948 -7 12 C-7.99 12.33 -8.98 12.66 -10 13 C-10.33 13.99 -10.66 14.98 -11 16 C-11.33 16.99 -11.66 17.98 -12 19 C-12.99 19.33 -13.98 19.66 -15 20 C-15.13277344 20.68707031 -15.26554687 21.37414062 -15.40234375 22.08203125 C-15.57894531 22.98308594 -15.75554687 23.88414063 -15.9375 24.8125 C-16.11152344 25.70582031 -16.28554687 26.59914063 -16.46484375 27.51953125 C-17 30 -17 30 -18 33 C-18.0685495 34.89470816 -18.08480372 36.7916834 -18.0625 38.6875 C-18.05347656 39.68136719 -18.04445313 40.67523438 -18.03515625 41.69921875 C-18.02355469 42.45847656 -18.01195313 43.21773437 -18 44 C-18.66 44 -19.32 44 -20 44 C-22.72608102 35.82175695 -20.29249054 26.61604465 -16.55859375 19.09765625 C-12.63476293 12.60649297 -7.86684977 6.8392549 -2 2 C-1.34 2 -0.68 2 0 2 C0 1.34 0 0.68 0 0 Z " fill="#633A22" transform="translate(103,36)"/>
<path d="M0 0 C0.66 0.33 1.32 0.66 2 1 C1.38125 1.20625 0.7625 1.4125 0.125 1.625 C-2.87021253 3.56307869 -3.05684917 5.63160418 -4 9 C-4.3403125 9.59554687 -4.680625 10.19109375 -5.03125 10.8046875 C-7.33875297 16.03378697 -6.84732938 23.08243884 -5.27734375 28.48828125 C-2.99382286 33.39738891 0.11199473 36.55599737 5 39 C5 39.66 5 40.32 5 41 C0.74983055 40.50959583 -2.28793067 38.16166372 -5 35 C-9.29867742 27.56302433 -10.20498989 20.12120705 -8.25 11.8125 C-4.26315789 2.84210526 -4.26315789 2.84210526 0 0 Z " fill="#62381F" transform="translate(188,55)"/>
<path d="M0 0 C3.66246263 5.49369395 2.62881277 13.09015425 1.60546875 19.453125 C-0.11477162 25.09107409 -4.20874921 28.74479777 -9 32 C-9.66 32 -10.32 32 -11 32 C-11 31.34 -11 30.68 -11 30 C-10.38125 29.731875 -9.7625 29.46375 -9.125 29.1875 C-6.7004767 28.04443152 -6.7004767 28.04443152 -5 25 C-5.3121764 22.35367713 -5.3121764 22.35367713 -6 20 C-4.68 20 -3.36 20 -2 20 C-0.35364914 16.70729828 -0.94099831 13.05135342 -1 9.4375 C-1.04579014 6.61911671 -1.04704383 3.81968962 -1 1 C-0.67 0.67 -0.34 0.34 0 0 Z " fill="#643921" transform="translate(273,64)"/>
<path d="M0 0 C-0.33 1.32 -0.66 2.64 -1 4 C1.97851562 3.90234375 1.97851562 3.90234375 4.95703125 3.8046875 C7 4 7 4 10 6 C6.38323726 7.80838137 2.03841752 6.89307955 -1.93359375 6.7421875 C-4.95680033 6.73380192 -4.95680033 6.73380192 -6.8359375 8.30859375 C-8.48349283 10.70252482 -9.19842356 13.22531233 -10 16 C-10.33 16 -10.66 16 -11 16 C-11.18319769 11.96965088 -10.94065076 9.51742949 -9 6 C-9 5.01 -9 4.02 -9 3 C-2.25 0 -2.25 0 0 0 Z " fill="#794020" transform="translate(249,53)"/>
<path d="M0 0 C9.41002278 -0.18451025 9.41002278 -0.18451025 14 1 C14 1.33 14 1.66 14 2 C10.7 2.33 7.4 2.66 4 3 C4 8.35820634 4.03592192 8.26745724 7 12 C7.495 13.175625 7.99 14.35125 8.5 15.5625 C9.78413673 18.50531333 10.56682595 20.03028768 13 22 C10.46657447 21.6169767 9.23582727 21.23640386 7.40234375 19.3984375 C2.91341512 13.19773075 -0.58357455 7.97551891 0 0 Z " fill="#97714F" transform="translate(39,66)"/>
<path d="M0 0 C0.66 0 1.32 0 2 0 C3.37389984 2.74779967 3.18071351 5.03716418 3.24609375 8.109375 C3.27896484 9.33914062 3.31183594 10.56890625 3.34570312 11.8359375 C3.4065327 14.42960694 3.46386757 17.02336087 3.51757812 19.6171875 C3.55173828 20.85210937 3.58589844 22.08703125 3.62109375 23.359375 C3.65867798 25.05271973 3.65867798 25.05271973 3.69702148 26.78027344 C4.011029 30.11720426 4.8191616 32.87353913 6 36 C4.0625 35.1875 4.0625 35.1875 2 34 C0.83597273 30.50791819 0.78881492 27.60852228 0.68359375 23.92578125 C0.66281265 23.2419487 0.64203156 22.55811615 0.62062073 21.8535614 C0.55533846 19.6733079 0.49633983 17.49293595 0.4375 15.3125 C0.39429447 13.83267014 0.35067953 12.35285217 0.30664062 10.87304688 C0.19967917 7.24882378 0.09835177 3.62446811 0 0 Z " fill="#B79670" transform="translate(450,60)"/>
<path d="M0 0 C2.53735275 1.37498601 4.91897597 2.95284893 7.3125 4.5625 C8.28026367 5.19961914 8.28026367 5.19961914 9.26757812 5.84960938 C10.84973954 6.89266393 12.42552501 7.94537872 14 9 C13.01 9.33 12.02 9.66 11 10 C10.4225 9.54625 9.845 9.0925 9.25 8.625 C6.24388767 6.45391887 3.65255775 6.44082594 0 6 C-3.85045824 4.96333817 -6.44244308 4.1259029 -9 1 C-5.57310217 -1.15767641 -3.84894987 -1.15468496 0 0 Z " fill="#B87F4D" transform="translate(57,40)"/>
<path d="M0 0 C5.8715238 0.80810171 9.11285067 3.67533603 13 8 C16.92735639 14.06009297 16.31306502 21.04299959 16 28 C15.34 28 14.68 28 14 28 C13.67 22.72 13.34 17.44 13 12 C12.34 12 11.68 12 11 12 C10.484375 10.906875 9.96875 9.81375 9.4375 8.6875 C7.0603804 4.44816035 4.53002518 3.48096977 0 2 C0 1.34 0 0.68 0 0 Z " fill="#BA9975" transform="translate(375,52)"/>
<path d="M0 0 C0.33 0.66 0.66 1.32 1 2 C0.01 2 -0.98 2 -2 2 C-2 2.66 -2 3.32 -2 4 C-2.99 4.33 -3.98 4.66 -5 5 C-4.83701416 5.8245166 -4.67402832 6.6490332 -4.50610352 7.49853516 C-3.94741783 11.36378846 -3.87414664 15.12959534 -3.90234375 19.0234375 C-3.9037587 19.76961334 -3.90517365 20.51578918 -3.90663147 21.28457642 C-3.91219126 23.64809318 -3.92473611 26.01151227 -3.9375 28.375 C-3.9425202 29.98567571 -3.9470822 31.59635291 -3.95117188 33.20703125 C-3.96214749 37.13805799 -3.97938404 41.06901248 -4 45 C-4.66 45 -5.32 45 -6 45 C-6.33 32.46 -6.66 19.92 -7 7 C-7.66 7 -8.32 7 -9 7 C-8.75390625 5.109375 -8.75390625 5.109375 -8 3 C-6.15234375 1.953125 -6.15234375 1.953125 -3.9375 1.25 C-2.83728516 0.88648438 -2.83728516 0.88648438 -1.71484375 0.515625 C-1.14894531 0.34546875 -0.58304687 0.1753125 0 0 Z " fill="#B39879" transform="translate(403,51)"/>
<path d="M0 0 C0 3 0 3 -1 6 C-0.01 6 0.98 6 2 6 C1.20844553 11.71961938 -3.71793076 14.62812905 -8 18 C-10.31677645 19.60392216 -12.43426181 20.79567391 -15 22 C-15.66 21.67 -16.32 21.34 -17 21 C-15.96939453 20.29423828 -15.96939453 20.29423828 -14.91796875 19.57421875 C-14.01691406 18.95160156 -13.11585937 18.32898438 -12.1875 17.6875 C-10.84751953 16.76517578 -10.84751953 16.76517578 -9.48046875 15.82421875 C-7.43899254 14.32284963 -5.71537213 12.85214599 -4 11 C-4.66 9.68 -5.32 8.36 -6 7 C-4.02 4.69 -2.04 2.38 0 0 Z " fill="#61351C" transform="translate(124,13)"/>
<path d="M0 0 C3.40836997 -0.30985182 5.32864433 -0.4791076 8.16723633 1.54663086 C10.59888395 4.80167641 10.58500785 7.59298735 10.57421875 11.50390625 C10.58838333 12.22360092 10.60254791 12.94329559 10.61714172 13.68479919 C10.65896884 15.97751894 10.67426487 18.26945285 10.6875 20.5625 C10.71659082 22.85875142 10.75116913 25.1548057 10.78999329 27.45091248 C10.81241304 28.87763045 10.82827355 30.30447009 10.83683777 31.7313385 C10.86975991 34.76194316 11.0334288 37.10028639 12 40 C13.65 40.33 15.3 40.66 17 41 C17 41.33 17 41.66 17 42 C11.25 42.125 11.25 42.125 9 41 C8.98018066 39.99098633 8.96036133 38.98197266 8.93994141 37.94238281 C8.86376664 34.19245804 8.77506784 30.44291529 8.68261719 26.69335938 C8.64437642 25.07169141 8.60951497 23.44994004 8.578125 21.828125 C8.53236743 19.49448883 8.47439184 17.16142438 8.4140625 14.828125 C8.40251129 14.10506165 8.39096008 13.38199829 8.37905884 12.63702393 C8.23774822 7.49593809 8.23774822 7.49593809 6 3 C2.95800528 1.70768358 2.95800528 1.70768358 0 1 C0 0.67 0 0.34 0 0 Z " fill="#BC9A79" transform="translate(415,55)"/>
<path d="M0 0 C0.66 0 1.32 0 2 0 C3.31764706 9.55294118 3.31764706 9.55294118 3 14 C2.34 14.66 1.68 15.32 1 16 C-0.65 15.01 -2.3 14.02 -4 13 C-3.625 11.0625 -3.625 11.0625 -3 9 C-2.34 8.67 -1.68 8.34 -1 8 C-1.33 6.02 -1.66 4.04 -2 2 C-1.34 2 -0.68 2 0 2 C0 1.34 0 0.68 0 0 Z " fill="#803B12" transform="translate(128,13)"/>
<path d="M0 0 C2.375 -0.1875 2.375 -0.1875 5 0 C7 3 7 3 7 7 C6.34 7 5.68 7 5 7 C4.67 7.99 4.34 8.98 4 10 C1 10 1 10 -2 8 C-1.33333333 5.33333333 -0.66666667 2.66666667 0 0 Z " fill="#CF9E63" transform="translate(332,61)"/>
<path d="M0 0 C6.78236831 3.10642823 11.40234045 11.26867375 14.046875 17.9375 C13.716875 18.9275 13.386875 19.9175 13.046875 20.9375 C10.42301013 17.87632432 10.046875 17.20576873 10.046875 12.9375 C9.056875 12.6075 8.066875 12.2775 7.046875 11.9375 C6.964375 11.15375 6.881875 10.37 6.796875 9.5625 C6.33838099 6.7928382 6.33838099 6.7928382 4.046875 5.8125 C3.386875 5.52375 2.726875 5.235 2.046875 4.9375 C1.716875 3.9475 1.386875 2.9575 1.046875 1.9375 C-2.58106498 3.80316488 -2.58106498 3.80316488 -4.953125 6.9375 C-5.943125 6.6075 -6.933125 6.2775 -7.953125 5.9375 C-7.05284912 4.90218274 -6.13219465 3.88455835 -5.203125 2.875 C-4.43742187 2.02228516 -4.43742187 2.02228516 -3.65625 1.15234375 C-1.953125 -0.0625 -1.953125 -0.0625 0 0 Z " fill="#D1B99A" transform="translate(89.953125,9.0625)"/>
<path d="M0 0 C1.19625 0.185625 2.3925 0.37125 3.625 0.5625 C1.42110856 1.70525852 -0.61989205 2.63829992 -3 3.375 C-5.53279118 4.35279978 -5.53279118 4.35279978 -6.51171875 6.72265625 C-7.51072256 10.00897195 -7.60587415 12.75699935 -7.5625 16.1875 C-7.55605469 17.31414062 -7.54960937 18.44078125 -7.54296875 19.6015625 C-7.5014556 22.61978226 -7.5014556 22.61978226 -6.375 25.5625 C-8.3125 25.25 -8.3125 25.25 -10.375 24.5625 C-12.30499905 18.77250284 -11.51630388 12.39198253 -9.25 6.7734375 C-6.79189942 2.56527619 -5.1147084 0.02725422 0 0 Z " fill="#61361D" transform="translate(197.375,58.4375)"/>
<path d="M0 0 C10.73119574 -0.78139775 10.73119574 -0.78139775 13.921875 1.18359375 C14.40140625 1.65925781 14.8809375 2.13492188 15.375 2.625 C16.24125 3.40875 17.1075 4.1925 18 5 C21.34084905 4.47158931 21.34084905 4.47158931 24 3 C24 4.32 24 5.64 24 7 C20.535 8.485 20.535 8.485 17 10 C17 9.34 17 8.68 17 8 C16.34 8 15.68 8 15 8 C12.875 6.125 12.875 6.125 11 4 C11 3.34 11 2.68 11 2 C7.37 1.67 3.74 1.34 0 1 C0 0.67 0 0.34 0 0 Z " fill="#C0A17E" transform="translate(415,51)"/>
<path d="M0 0 C0.99 0 1.98 0 3 0 C3.9249503 6.93712724 3.9249503 13.06287276 3 20 C2.34 20 1.68 20 1 20 C1 20.99 1 21.98 1 23 C0.01 22.67 -0.98 22.34 -2 22 C-1.67402832 21.42926758 -1.34805664 20.85853516 -1.01220703 20.27050781 C0.07403796 17.83392354 0.2331027 16.31718893 0.1953125 13.671875 C0.18886719 12.87265625 0.18242187 12.0734375 0.17578125 11.25 C0.15902344 10.425 0.14226562 9.6 0.125 8.75 C0.11146484 7.48929687 0.11146484 7.48929687 0.09765625 6.203125 C0.07415817 4.13529396 0.03828908 2.06761005 0 0 Z " fill="#C1A078" transform="translate(331,70)"/>
<path d="M0 0 C1.51953125 1.05078125 1.51953125 1.05078125 3 3 C3.07421875 6.35546875 3.07421875 6.35546875 2.6875 10.1875 C2.56761719 11.45980469 2.44773437 12.73210937 2.32421875 14.04296875 C2.21722656 15.01878906 2.11023438 15.99460937 2 17 C-1.59341699 17 -2.91004608 16.0586031 -5.9375 14.1875 C-6.79214844 13.66542969 -7.64679688 13.14335938 -8.52734375 12.60546875 C-10.7631652 11.15377425 -12.89132657 9.62920708 -15 8 C-10.13181467 8.60852317 -6.27041171 10.73753022 -2 13 C-1.34 13.33 -0.68 13.66 0 14 C0.02698189 12.37509046 0.04638757 10.75005367 0.0625 9.125 C0.07410156 8.22007813 0.08570312 7.31515625 0.09765625 6.3828125 C0.16249257 3.9831415 0.16249257 3.9831415 -1 2 C-0.67 1.34 -0.34 0.68 0 0 Z " fill="#A5734E" transform="translate(78,59)"/>
<path d="M0 0 C0 0.66 0 1.32 0 2 C0.66 2 1.32 2 2 2 C3.625 4.5 3.625 4.5 5 7 C3.35 6.34 1.7 5.68 0 5 C0 4.34 0 3.68 0 3 C-1.98 2.34 -3.96 1.68 -6 1 C-6 0.01 -6 -0.98 -6 -2 C-14.415 -1.505 -14.415 -1.505 -23 -1 C-22.67 -1.66 -22.34 -2.32 -22 -3 C-13.5468814 -5.56155109 -7.52838067 -3.76419034 0 0 Z " fill="#6B4630" transform="translate(268,55)"/>
<path d="M0 0 C0.90105469 0.00902344 1.80210937 0.01804688 2.73046875 0.02734375 C3.41753906 0.03894531 4.10460937 0.05054688 4.8125 0.0625 C1.8125 2.0625 1.8125 2.0625 -0.1875 3.0625 C-0.1875 3.3925 -0.1875 3.7225 -0.1875 4.0625 C-1.445625 4.330625 -2.70375 4.59875 -4 4.875 C-7.18198801 5.65782537 -9.18994311 6.31585928 -11.1875 9.0625 C-12.1775 7.7425 -13.1675 6.4225 -14.1875 5.0625 C-9.21630553 1.63789937 -6.0437958 -0.07849085 0 0 Z " fill="#BFA484" transform="translate(318.1875,50.9375)"/>
<path d="M0 0 C4.46839215 -0.21278058 7.82262526 0.40861915 12 2 C9 4 9 4 5.5 4.75 C1.74928291 5.67966575 1.74928291 5.67966575 0.0625 9.125 C-0.288125 10.07375 -0.63875 11.0225 -1 12 C-1.33 12 -1.66 12 -2 12 C-2.28571429 3.42857143 -2.28571429 3.42857143 0 0 Z " fill="#BF8452" transform="translate(40,36)"/>
<path d="M0 0 C1.11375 0.185625 1.11375 0.185625 2.25 0.375 C1.92 2.025 1.59 3.675 1.25 5.375 C-0.07 5.705 -1.39 6.035 -2.75 6.375 C-2.87375 7.32375 -2.9975 8.2725 -3.125 9.25 C-3.75 12.375 -3.75 12.375 -5.75 14.375 C-6.41 14.045 -7.07 13.715 -7.75 13.375 C-7.30579403 7.82242539 -6.48308128 0.88405654 0 0 Z " fill="#C8A16C" transform="translate(353.75,56.625)"/>
<path d="M0 0 C2.53910197 0.38520564 3.72751123 0.70097943 5.484375 2.62890625 C5.90203125 3.26699219 6.3196875 3.90507813 6.75 4.5625 C7.17796875 5.20316406 7.6059375 5.84382813 8.046875 6.50390625 C8.36140625 6.99761719 8.6759375 7.49132813 9 8 C8.67 8.66 8.34 9.32 8 10 C6.02 10 4.04 10 2 10 C2 9.34 2 8.68 2 8 C1.34 8 0.68 8 0 8 C0 5.36 0 2.72 0 0 Z " fill="#BF824B" transform="translate(70,51)"/>
<path d="M0 0 C0.33 1.32 0.66 2.64 1 4 C0.01 4.66 -0.98 5.32 -2 6 C-1.67 6.66 -1.34 7.32 -1 8 C-2.98 8.66 -4.96 9.32 -7 10 C-7.33 9.01 -7.66 8.02 -8 7 C-10.64 6.67 -13.28 6.34 -16 6 C-15.67 5.01 -15.34 4.02 -15 3 C-13.205625 3.3403125 -13.205625 3.3403125 -11.375 3.6875 C-7.11857677 4.23939857 -4.66281808 3.32276268 -1 1 C-0.67 0.67 -0.34 0.34 0 0 Z " fill="#79472C" transform="translate(262,85)"/>
<path d="M0 0 C3.51117809 3.51117809 5 5.97392802 5 11 C8.3 11 11.6 11 15 11 C15 11.99 15 12.98 15 14 C13.04098546 13.88617347 11.0827662 13.75858875 9.125 13.625 C8.03445312 13.55539063 6.94390625 13.48578125 5.8203125 13.4140625 C3 13 3 13 1 11 C0.5859375 8.3984375 0.5859375 8.3984375 0.375 5.375 C0.30023438 4.37210938 0.22546875 3.36921875 0.1484375 2.3359375 C0.09945312 1.56507812 0.05046875 0.79421875 0 0 Z " fill="#B08155" transform="translate(37,51)"/>
<path d="M0 0 C4.76556082 1.9719562 7.04735513 5.3406401 9 10 C10.09114722 17.22445054 10.77742114 24.13813601 8 31 C6.5688043 28.1376086 7.05829842 25.75063628 7.1875 22.5625 C7.2582481 13.95776193 5.44086899 6.766009 0 0 Z " fill="#B39775" transform="translate(373,59)"/>
<path d="M0 0 C-2.63211391 3.25143483 -6.02045073 4.94270278 -10 6 C-13.35124465 6.23448942 -16.64726563 6.1821405 -20 6 C-20 5.67 -20 5.34 -20 5 C-18.02 5 -16.04 5 -14 5 C-14 4.34 -14 3.68 -14 3 C-14.66 3 -15.32 3 -16 3 C-16 2.34 -16 1.68 -16 1 C-15.06027344 1.01740234 -15.06027344 1.01740234 -14.1015625 1.03515625 C-12.87566406 1.04869141 -12.87566406 1.04869141 -11.625 1.0625 C-10.40683594 1.07990234 -10.40683594 1.07990234 -9.1640625 1.09765625 C-5.93638303 0.95200284 -3.40969285 -0.08972876 0 0 Z " fill="#B49C7E" transform="translate(383,92)"/>
<path d="M0 0 C6.24594411 0.16015241 10.92279442 3.71888098 16 7 C13.50935112 7.68707555 11.62113708 8 9 8 C9 7.34 9 6.68 9 6 C7.02 6.33 5.04 6.66 3 7 C2.67 6.34 2.34 5.68 2 5 C2.33 4.01 2.66 3.02 3 2 C1.68 1.67 0.36 1.34 -1 1 C-0.67 0.67 -0.34 0.34 0 0 Z " fill="#BE956A" transform="translate(61,14)"/>
<path d="M0 0 C3.99307785 2.77779328 6.21133443 4.49526679 7.375 9.3125 C7.58125 10.529375 7.7875 11.74625 8 13 C7.01 13 6.02 13 5 13 C2 9.66666667 2 9.66666667 2 7 C1.34 7 0.68 7 0 7 C-0.93423645 3.98968256 -1.04449911 3.13349732 0 0 Z " fill="#C48C50" transform="translate(79,24)"/>
<path d="M0 0 C0.66 0 1.32 0 2 0 C2.19335938 1.03640625 2.38671875 2.0728125 2.5859375 3.140625 C2.84864867 4.51047609 3.11168671 5.88026452 3.375 7.25 C3.50132812 7.93191406 3.62765625 8.61382812 3.7578125 9.31640625 C4.80102167 14.68893345 5.93322093 18.30292812 10 22 C9.67 22.66 9.34 23.32 9 24 C3.04574515 18.00720628 -0.14207621 12.00745588 -0.1875 3.4375 C-0.125625 2.303125 -0.06375 1.16875 0 0 Z " fill="#B49475" transform="translate(345,70)"/>
<path d="M0 0 C2.0625 0.1875 2.0625 0.1875 4 1 C5.41687119 5.25061356 4.19320039 7.71851625 3 12 C2.34 12 1.68 12 1 12 C-0.25664978 9.09399739 -1 7.20395416 -1 4 C-1.99 4.99 -2.98 5.98 -4 7 C-2.92598892 4.08482708 -2.22189824 2.22189824 0 0 Z " fill="#BF996F" transform="translate(303,57)"/>
<path d="M0 0 C2.25 0.0625 2.25 0.0625 5 1 C7.0625 4.1875 7.0625 4.1875 8.01953125 6.0859375 C8.97390427 7.94905614 10.04864756 9.60109968 11.25 11.3125 C13 14 13 14 13 16 C10.03 15.505 10.03 15.505 7 15 C7.99 14.67 8.98 14.34 10 14 C7.69 10.37 5.38 6.74 3 3 C1.35 3.33 -0.3 3.66 -2 4 C-1.34 2.68 -0.68 1.36 0 0 Z " fill="#593923" transform="translate(128,8)"/>
<path d="M0 0 C0 2.68255839 -0.32491581 4.44968195 -1 7 C-2.25071369 12.34636064 -2.18377429 17.53781974 -2 23 C-2.66 23 -3.32 23 -4 23 C-6.44307105 15.67078684 -4.45222779 8.13170835 -2 1 C-1.34 0.67 -0.68 0.34 0 0 Z " fill="#5E3218" transform="translate(87,57)"/>
<path d="M0 0 C1.19496094 0.54140625 1.19496094 0.54140625 2.4140625 1.09375 C3.47367188 1.5578125 4.53328125 2.021875 5.625 2.5 C7.19121094 3.19609375 7.19121094 3.19609375 8.7890625 3.90625 C13.39215211 5.4742124 17.37088217 5.42434395 22 4 C22 4.66 22 5.32 22 6 C17.81466719 8.09266641 12.5564925 7.4300771 8 7 C5.07558846 6.00214336 3.48720632 4.93449381 1 3 C0.67 2.01 0.34 1.02 0 0 Z " fill="#6B412B" transform="translate(240,91)"/>
<path d="M0 0 C2 1 2 1 3.4375 3.4375 C4.89664045 6.2355972 4.89664045 6.2355972 8 8 C8.33 8.99 8.66 9.98 9 11 C11.49759982 12.69882448 11.49759982 12.69882448 14 14 C12.3125 14.75 12.3125 14.75 10 15 C5.2955528 12.22558242 2.3425923 7.85464873 0 3 C0 2.01 0 1.02 0 0 Z " fill="#613921" transform="translate(85,84)"/>
<path d="M0 0 C0.99 0.495 0.99 0.495 2 1 C2.1946838 3.77050026 2.38102792 6.54113002 2.5625 9.3125 C2.61857422 10.09818359 2.67464844 10.88386719 2.73242188 11.69335938 C2.78076172 12.45068359 2.82910156 13.20800781 2.87890625 13.98828125 C2.94960327 15.03302612 2.94960327 15.03302612 3.02172852 16.09887695 C3 18 3 18 2 21 C1.34 21 0.68 21 0 21 C0 14.07 0 7.14 0 0 Z " fill="#66380A" transform="translate(230,74)"/>
<path d="M0 0 C1 2 1 2 0 6 C-5.94 5.01 -5.94 5.01 -12 4 C-8.8388984 0.8388984 -8.4438418 0.61187259 -4.3125 0.3125 C-3.10013672 0.21388672 -3.10013672 0.21388672 -1.86328125 0.11328125 C-0.94095703 0.05720703 -0.94095703 0.05720703 0 0 Z " fill="#C09D74" transform="translate(373,51)"/>
<path d="M0 0 C2.4375 0.8125 2.4375 0.8125 5 2 C5.33 2.99 5.66 3.98 6 5 C7.918125 5.2784375 7.918125 5.2784375 9.875 5.5625 C10.59429687 5.66691406 11.31359375 5.77132812 12.0546875 5.87890625 C14.08140667 6.1684297 14.08140667 6.1684297 16 5 C16 5.66 16 6.32 16 7 C16.66 7 17.32 7 18 7 C18 7.66 18 8.32 18 9 C12.46228255 9.28643366 8.75196173 9.24524216 4 6 C3.3125 3.875 3.3125 3.875 3 2 C2.01 1.67 1.02 1.34 0 1 C0 0.67 0 0.34 0 0 Z " fill="#C39B70" transform="translate(351,88)"/>
<path d="M0 0 C0.99 0.33 1.98 0.66 3 1 C3 2.32 3 3.64 3 5 C0.69 6.32 -1.62 7.64 -4 9 C-4.33 7.35 -4.66 5.7 -5 4 C-4.34 4 -3.68 4 -3 4 C-2.67 3.01 -2.34 2.02 -2 1 C-1.34 0.67 -0.68 0.34 0 0 Z " fill="#803E1D" transform="translate(215,86)"/>
<path d="M0 0 C6.85956196 1.1585038 12.23404557 2.68085468 16.875 8.25 C17.24625 8.8275 17.6175 9.405 18 10 C17.67 10.66 17.34 11.32 17 12 C15 11 15 11 14 8.625 C11.27537444 5.04892895 8.55301815 4.7403301 4.27734375 3.7734375 C2 3 2 3 0 0 Z " fill="#67402C" transform="translate(204,51)"/>
<path d="M0 0 C7.75 -0.125 7.75 -0.125 10 1 C10 1.66 10 2.32 10 3 C12.97 3 15.94 3 19 3 C19 3.66 19 4.32 19 5 C12.09232563 4.63176001 6.3618858 3.76081837 0 1 C0 0.67 0 0.34 0 0 Z " fill="#9F7856" transform="translate(65,99)"/>
<path d="M0 0 C2.96175123 0.61277612 4.38058783 1.25372522 7 3 C5.515 5.475 5.515 5.475 4 8 C1.5625 7.625 1.5625 7.625 -1 7 C-1.33 6.34 -1.66 5.68 -2 5 C-1.34 4.67 -0.68 4.34 0 4 C0 2.68 0 1.36 0 0 Z " fill="#763C1B" transform="translate(144,87)"/>
<path d="M0 0 C1.65 0.33 3.3 0.66 5 1 C4.34 2.98 3.68 4.96 3 7 C1.68 7 0.36 7 -1 7 C-1.66 5.68 -2.32 4.36 -3 3 C-2.01 2.67 -1.02 2.34 0 2 C0 1.34 0 0.68 0 0 Z " fill="#BA946A" transform="translate(81,50)"/>
<path d="M0 0 C1.33513978 3.63594669 0.64493645 5.47958331 -0.9375 8.9375 C-2.56523918 12.50749067 -3.23231519 15.06472152 -3 19 C-3.99 19 -4.98 19 -6 19 C-4.91081033 12.13523882 -3.09761199 6.22529789 0 0 Z " fill="#B2916D" transform="translate(59,16)"/>
<path d="M0 0 C6.27 0 12.54 0 19 0 C19 0.66 19 1.32 19 2 C16.18433745 3.40783127 13.7636293 3.2076814 10.625 3.25 C8.91183594 3.28867188 8.91183594 3.28867188 7.1640625 3.328125 C4 3 4 3 0 0 Z " fill="#714A35" transform="translate(145,95)"/>
<path d="M0 0 C3.68754757 0.49831724 5.60490662 1.10067643 8 4 C5.23723823 3.47731534 2.6739124 2.89130413 0 2 C0.33 3.98 0.66 5.96 1 8 C-0.32 8 -1.64 8 -3 8 C-3.33 7.01 -3.66 6.02 -4 5 C-2.0625 2.3125 -2.0625 2.3125 0 0 Z " fill="#65402B" transform="translate(144,85)"/>
<path d="M0 0 C0.33 0.66 0.66 1.32 1 2 C1.99 2.33 2.98 2.66 4 3 C3 5 3 5 1 6 C-1.6723621 6.13415472 -4.32250488 6.04318541 -7 6 C-7 5.01 -7 4.02 -7 3 C-6.21625 2.87625 -5.4325 2.7525 -4.625 2.625 C-1.85942178 2.20882007 -1.85942178 2.20882007 0 0 Z " fill="#7F3D1A" transform="translate(206,90)"/>
<path d="M0 0 C0.99 0 1.98 0 3 0 C3.33 1.32 3.66 2.64 4 4 C5.32 3.34 6.64 2.68 8 2 C8.33 3.32 8.66 4.64 9 6 C8.01 6.33 7.02 6.66 6 7 C5.34 7.66 4.68 8.32 4 9 C3.34 8.67 2.68 8.34 2 8 C2 6.02 2 4.04 2 2 C1.34 2 0.68 2 0 2 C0 1.34 0 0.68 0 0 Z " fill="#D1B79F" transform="translate(404,51)"/>
<path d="M0 0 C9.41002278 -0.18451025 9.41002278 -0.18451025 14 1 C14 1.33 14 1.66 14 2 C12.95199219 2.05607422 12.95199219 2.05607422 11.8828125 2.11328125 C10.51769531 2.21189453 10.51769531 2.21189453 9.125 2.3125 C7.76761719 2.39951172 7.76761719 2.39951172 6.3828125 2.48828125 C3.63778399 2.7882039 3.63778399 2.7882039 2 6 C1.34 6 0.68 6 0 6 C0 4.02 0 2.04 0 0 Z " fill="#9A795C" transform="translate(39,66)"/>
<path d="M0 0 C0.33 0 0.66 0 1 0 C1 1.98 1 3.96 1 6 C-2.81489674 7.46726798 -5.29011622 6.43336419 -9 5 C-9 4.34 -9 3.68 -9 3 C-6.36 3 -3.72 3 -1 3 C-0.67 2.01 -0.34 1.02 0 0 Z " fill="#BE844C" transform="translate(65,61)"/>
<path d="M0 0 C3.63 0 7.26 0 11 0 C10.01 0.33 9.02 0.66 8 1 C8 1.66 8 2.32 8 3 C3.545 3.495 3.545 3.495 -1 4 C-0.67 2.68 -0.34 1.36 0 0 Z " fill="#C8A075" transform="translate(413,52)"/>
<path d="M0 0 C0.66 0 1.32 0 2 0 C2.30341425 2.0788382 2.5666325 4.163573 2.8125 6.25 C3.03873047 7.99023438 3.03873047 7.99023438 3.26953125 9.765625 C3 13 3 13 0.51171875 15.421875 C-0.31714844 15.94265625 -1.14601563 16.4634375 -2 17 C-1.505 15.2984375 -1.505 15.2984375 -1 13.5625 C0.15847067 9.00204151 0.19493291 4.67838994 0 0 Z " fill="#70452A" transform="translate(265,68)"/>
<path d="M0 0 C2.375 0.8125 2.375 0.8125 4.375 2.8125 C3.570625 2.93625 2.76625 3.06 1.9375 3.1875 C0.6690625 3.496875 0.6690625 3.496875 -0.625 3.8125 C-0.955 4.4725 -1.285 5.1325 -1.625 5.8125 C-3.275 4.8225 -4.925 3.8325 -6.625 2.8125 C-4.2650337 0.62734602 -3.28118881 -0.23437063 0 0 Z " fill="#BF8454" transform="translate(54.625,39.1875)"/>
<path d="M0 0 C0.66 0 1.32 0 2 0 C-0.49564298 6.12566914 -5.10366577 9.39464301 -11 12 C-11 11.34 -11 10.68 -11 10 C-5.58823529 6 -5.58823529 6 -3 6 C-2.690625 5.195625 -2.38125 4.39125 -2.0625 3.5625 C-1 1 -1 1 0 0 Z " fill="#5C331E" transform="translate(221,85)"/>
<path d="M0 0 C-1.41225926 0.67595315 -2.83002905 1.34040059 -4.25 2 C-5.43335938 2.556875 -5.43335938 2.556875 -6.640625 3.125 C-9 4 -9 4 -13 4 C-12.67 3.01 -12.34 2.02 -12 1 C-10.29296875 0.234375 -10.29296875 0.234375 -8.1875 -0.25 C-7.50042969 -0.42015625 -6.81335938 -0.5903125 -6.10546875 -0.765625 C-3.80500179 -1.02170666 -2.19370273 -0.69015367 0 0 Z " fill="#70432A" transform="translate(203,52)"/>
<path d="M0 0 C0.66 0 1.32 0 2 0 C1.66756117 2.95283904 1.1280648 3.88733097 -1.14453125 5.88671875 C-2.02496094 6.48097656 -2.90539062 7.07523438 -3.8125 7.6875 C-4.68519531 8.28949219 -5.55789062 8.89148438 -6.45703125 9.51171875 C-8.72203202 10.83731828 -10.43926597 11.55231923 -13 12 C-9.82461755 8.55033203 -5.96402998 6.20353926 -2.08203125 3.62109375 C-1.39496094 3.08613281 -0.70789063 2.55117188 0 2 C0 1.34 0 0.68 0 0 Z " fill="#563323" transform="translate(120,23)"/>
<path d="M0 0 C0.75 1.625 0.75 1.625 1 4 C-0.85182291 7.5611979 -2.12683167 9.56341583 -5.75 11.375 C-6.4925 11.58125 -7.235 11.7875 -8 12 C-8.33 11.34 -8.66 10.68 -9 10 C-8.34 10 -7.68 10 -7 10 C-6.67 9.34 -6.34 8.68 -6 8 C-5.360625 7.38125 -4.72125 6.7625 -4.0625 6.125 C-2.12827329 4.13216036 -1.08298563 2.52696647 0 0 Z " fill="#5F3721" transform="translate(172,84)"/>
<path d="M0 0 C3.37462715 0.54723683 5.08235 1.0549 8 3 C7.67 3.66 7.34 4.32 7 5 C4.36 5 1.72 5 -1 5 C-0.67 3.35 -0.34 1.7 0 0 Z " fill="#CEA066" transform="translate(312,92)"/>
<path d="M0 0 C4.46839215 -0.21278058 7.82262526 0.40861915 12 2 C12 2.33 12 2.66 12 3 C7.71 3 3.42 3 -1 3 C-0.67 2.01 -0.34 1.02 0 0 Z " fill="#A8815A" transform="translate(40,36)"/>
<path d="M0 0 C1.32 0.66 2.64 1.32 4 2 C3.67 2.66 3.34 3.32 3 4 C2.34 4 1.68 4 1 4 C0.5978125 5.175625 0.5978125 5.175625 0.1875 6.375 C-1 9 -1 9 -4 11 C-2.95902388 7.13351728 -1.96301592 3.50538557 0 0 Z " fill="#B28B62" transform="translate(90,40)"/>
<path d="M0 0 C2.00720923 0.28674418 4.0085944 0.61866701 6 1 C5.34 2.32 4.68 3.64 4 5 C2.0625 4.6875 2.0625 4.6875 0 4 C-0.33 3.01 -0.66 2.02 -1 1 C-0.67 0.67 -0.34 0.34 0 0 Z " fill="#823C19" transform="translate(192,90)"/>
<path d="M0 0 C0.66 0.33 1.32 0.66 2 1 C2 1.99 2 2.98 2 4 C0.35 4.66 -1.3 5.32 -3 6 C-3.99 5.01 -4.98 4.02 -6 3 C-5.67 2.34 -5.34 1.68 -5 1 C-3.68 1 -2.36 1 -1 1 C-0.67 0.67 -0.34 0.34 0 0 Z " fill="#C5B49C" transform="translate(437,54)"/>
<path d="M0 0 C2.31 0 4.62 0 7 0 C6.67 1.98 6.34 3.96 6 6 C5.67 5.34 5.34 4.68 5 4 C2.47266765 3.34444881 2.47266765 3.34444881 0 3 C0 2.01 0 1.02 0 0 Z " fill="#6D3922" transform="translate(166,37)"/>
<path d="M0 0 C1.51953125 1.14453125 1.51953125 1.14453125 3 3 C3.07421875 5.69921875 3.07421875 5.69921875 2.6875 8.6875 C2.50767578 10.17830078 2.50767578 10.17830078 2.32421875 11.69921875 C2.21722656 12.45847656 2.11023438 13.21773437 2 14 C1.67 14 1.34 14 1 14 C0.93941406 13.30132812 0.87882812 12.60265625 0.81640625 11.8828125 C0.73261719 10.97273438 0.64882812 10.06265625 0.5625 9.125 C0.48128906 8.22007813 0.40007812 7.31515625 0.31640625 6.3828125 C0.13010715 3.98889139 0.13010715 3.98889139 -1 2 C-0.67 1.34 -0.34 0.68 0 0 Z " fill="#AA8157" transform="translate(78,59)"/>
<path d="M0 0 C1.98 0.66 3.96 1.32 6 2 C4.68 2.33 3.36 2.66 2 3 C2 4.65 2 6.3 2 8 C1.01 8.495 1.01 8.495 0 9 C-0.87890625 2.84765625 -0.87890625 2.84765625 -1 1 C-0.67 0.67 -0.34 0.34 0 0 Z " fill="#6D391A" transform="translate(131,19)"/>
<path d="M0 0 C3.77727089 1.81309003 7.37269822 3.9073259 11 6 C9.234375 6.6796875 9.234375 6.6796875 7 7 C5.078125 5.8203125 5.078125 5.8203125 3.25 4.125 C2.63640625 3.57070312 2.0228125 3.01640625 1.390625 2.4453125 C0 1 0 1 0 0 Z " fill="#94744F" transform="translate(53,91)"/>
<path d="M0 0 C0.66 0 1.32 0 2 0 C2.33 3.63 2.66 7.26 3 11 C0 8 0 8 -0.29296875 5.95703125 C-0.1953125 3.97135417 -0.09765625 1.98567708 0 0 Z " fill="#BF9A78" transform="translate(345,70)"/>
<path d="M0 0 C6.92613636 5.42045455 6.92613636 5.42045455 8 9 C7.67 9.99 7.34 10.98 7 12 C6.0165504 10.56542672 5.03839079 9.12722594 4.0625 7.6875 C3.51722656 6.88699219 2.97195313 6.08648437 2.41015625 5.26171875 C1 3 1 3 0 0 Z " fill="#B89977" transform="translate(333,55)"/>
<path d="M0 0 C2.475 0.495 2.475 0.495 5 1 C5.33 1.99 5.66 2.98 6 4 C5.67 4.66 5.34 5.32 5 6 C2.525 5.01 2.525 5.01 0 4 C0 2.68 0 1.36 0 0 Z " fill="#D49D64" transform="translate(326,55)"/>
<path d="M0 0 C2.00993705 2.00993705 2.89940919 3.59211232 4.125 6.125 C4.47820312 6.84945312 4.83140625 7.57390625 5.1953125 8.3203125 C5.46085937 8.87460938 5.72640625 9.42890625 6 10 C1.125 8.25 1.125 8.25 0 6 C-0.039992 4.00039988 -0.04346799 1.99952758 0 0 Z " fill="#B89A7B" transform="translate(357,80)"/>
<path d="M0 0 C0.99 0 1.98 0 3 0 C4.5625 2.8125 4.5625 2.8125 6 6 C5.67 6.99 5.34 7.98 5 9 C0 2.63636364 0 2.63636364 0 0 Z " fill="#703E1A" transform="translate(83,80)"/>
<path d="M0 0 C0.12375 0.639375 0.2475 1.27875 0.375 1.9375 C0.58125 2.618125 0.7875 3.29875 1 4 C1.66 4.33 2.32 4.66 3 5 C3.625 8.0625 3.625 8.0625 4 11 C3.01 10.67 2.02 10.34 1 10 C-0.60725635 6.78548731 -0.05748185 3.56387464 0 0 Z " fill="#BAA283" transform="translate(306,73)"/>
<path d="M0 0 C0.99386719 0.00902344 1.98773438 0.01804688 3.01171875 0.02734375 C4.15060547 0.04474609 4.15060547 0.04474609 5.3125 0.0625 C5.3125 0.3925 5.3125 0.7225 5.3125 1.0625 C4.70921875 1.11148438 4.1059375 1.16046875 3.484375 1.2109375 C2.28554688 1.32308594 2.28554688 1.32308594 1.0625 1.4375 C-0.12085938 1.54191406 -0.12085938 1.54191406 -1.328125 1.6484375 C-3.773377 2.07757113 -5.53586903 2.84850638 -7.6875 4.0625 C-8.0175 3.0725 -8.3475 2.0825 -8.6875 1.0625 C-5.53819107 0.01273036 -3.29935544 -0.03881595 0 0 Z " fill="#C7AE91" transform="translate(367.6875,50.9375)"/>
<path d="M0 0 C2.31 0 4.62 0 7 0 C6.67 1.32 6.34 2.64 6 4 C5.38125 3.814375 4.7625 3.62875 4.125 3.4375 C1.95839822 2.76313824 1.95839822 2.76313824 0 4 C0 2.68 0 1.36 0 0 Z " fill="#6A4836" transform="translate(232,34)"/>
<path d="M0 0 C-0.33 1.32 -0.66 2.64 -1 4 C-3.31 3.67 -5.62 3.34 -8 3 C-5.48696401 0.48696401 -3.51117809 0 0 0 Z " fill="#754226" transform="translate(249,53)"/>
<path d="M0 0 C3.69230769 0.69230769 3.69230769 0.69230769 5 2 C5.04063832 3.66617115 5.042721 5.33388095 5 7 C3 6 3 6 2 3 C1.01 2.34 0.02 1.68 -1 1 C-0.67 0.67 -0.34 0.34 0 0 Z " fill="#784223" transform="translate(234,36)"/>
<path d="M0 0 C3.99500618 1.3697164 6.80009492 3.25722422 10 6 C6.05879291 5.43697042 3.2491277 4.3208055 0 2 C0 1.34 0 0.68 0 0 Z " fill="#AF8F71" transform="translate(67,16)"/>
<path d="M0 0 C4 2 4 2 6 5 C6 5.99 6 6.98 6 8 C5.34 8 4.68 8 4 8 C2.68 5.36 1.36 2.72 0 0 Z " fill="#BA9873" transform="translate(326,61)"/>
<path d="M0 0 C0.433125 0.45375 0.86625 0.9075 1.3125 1.375 C3.10798342 3.20024334 3.10798342 3.20024334 6 5 C5.67 5.66 5.34 6.32 5 7 C3.35 6.67 1.7 6.34 0 6 C0.33 5.34 0.66 4.68 1 4 C0.60061233 1.90178785 0.60061233 1.90178785 0 0 Z " fill="#C68E49" transform="translate(73,54)"/>
<path d="M0 0 C0.33 1.32 0.66 2.64 1 4 C-1.475 5.485 -1.475 5.485 -4 7 C-3.43628586 3.73045798 -2.50037734 2.17424117 0 0 Z " fill="#C89751" transform="translate(66,34)"/>
<path d="" fill="#6A2A00" transform="translate(0,0)"/>
<path d="" fill="#FFFFFF" transform="translate(0,0)"/>
<path d="" fill="#FFFFFF" transform="translate(0,0)"/>
<path d="" fill="#FFFFFF" transform="translate(0,0)"/>
<path d="" fill="#FFFFFF" transform="translate(0,0)"/>
<path d="" fill="#FFFFFF" transform="translate(0,0)"/>
<path d="" fill="#FFFFFF" transform="translate(0,0)"/>
<path d="" fill="#FFFFFF" transform="translate(0,0)"/>
<path d="" fill="#000000" transform="translate(0,0)"/>
<path d="" fill="#FFFFFF" transform="translate(0,0)"/>
<path d="" fill="#FFFFFF" transform="translate(0,0)"/>
<path d="" fill="#FFFFFF" transform="translate(0,0)"/>
<path d="" fill="#FFFFFF" transform="translate(0,0)"/>
<path d="" fill="#FFFFFF" transform="translate(0,0)"/>
<path d="" fill="#FFFFFF" transform="translate(0,0)"/>
</svg>
