<svg xmlns="http://www.w3.org/2000/svg" xmlns:xlink="http://www.w3.org/1999/xlink" zoomAndPan="magnify" preserveAspectRatio="xMidYMid meet" version="1.0" viewBox="30.8 358.33 700.04 175.08"><defs><g/><clipPath id="c92f6e5aab"><path d="M 68 358.332031 L 192 358.332031 L 192 482 L 68 482 Z M 68 358.332031 " clip-rule="nonzero"/></clipPath><clipPath id="f222c29adb"><path d="M 170 470 L 234.6875 470 L 234.6875 533.082031 L 170 533.082031 Z M 170 470 " clip-rule="nonzero"/></clipPath><clipPath id="8d29a40dee"><path d="M 30.6875 423 L 93 423 L 93 468 L 30.6875 468 Z M 30.6875 423 " clip-rule="nonzero"/></clipPath><clipPath id="f60998f328"><rect x="0" width="319" y="0" height="203"/></clipPath><clipPath id="a7e97a5bdb"><rect x="0" width="188" y="0" height="201"/></clipPath></defs><path fill="#11b77f" d="M 130.390625 466.710938 C 104.546875 466.710938 83.558594 445.726562 83.558594 419.878906 C 83.558594 394.035156 104.546875 373.050781 130.390625 373.050781 C 156.234375 373.050781 177.21875 394.035156 177.21875 419.878906 C 177.21875 445.726562 156.234375 466.710938 130.390625 466.710938 Z M 130.390625 378.878906 C 107.800781 378.878906 89.390625 397.292969 89.390625 419.878906 C 89.390625 442.46875 107.800781 460.882812 130.390625 460.882812 C 152.980469 460.882812 171.390625 442.46875 171.390625 419.878906 C 171.390625 397.292969 153.027344 378.878906 130.390625 378.878906 Z M 130.390625 378.878906 " fill-opacity="1" fill-rule="nonzero"/><g clip-path="url(#c92f6e5aab)"><path fill="#11b77f" d="M 130.390625 481.429688 C 96.433594 481.429688 68.839844 453.789062 68.839844 419.882812 C 68.839844 385.972656 96.433594 358.332031 130.390625 358.332031 C 164.347656 358.332031 191.9375 385.972656 191.9375 419.878906 C 191.9375 453.789062 164.347656 481.429688 130.390625 481.429688 Z M 130.390625 364.160156 C 99.640625 364.160156 74.667969 389.179688 74.667969 419.878906 C 74.667969 450.632812 99.6875 475.601562 130.390625 475.601562 C 161.140625 475.601562 186.109375 450.582031 186.109375 419.882812 C 186.160156 389.128906 161.140625 364.160156 130.390625 364.160156 Z M 130.390625 364.160156 " fill-opacity="1" fill-rule="nonzero"/></g><path fill="#11b77f" d="M 172.554688 484.296875 C 171.828125 484.296875 171.050781 484.003906 170.515625 483.421875 L 159.003906 471.910156 C 157.886719 470.792969 157.886719 468.945312 159.003906 467.78125 C 160.121094 466.664062 161.964844 466.664062 163.132812 467.78125 L 174.644531 479.292969 C 175.761719 480.410156 175.761719 482.257812 174.644531 483.421875 C 174.0625 484.054688 173.332031 484.296875 172.554688 484.296875 Z M 172.554688 484.296875 " fill-opacity="1" fill-rule="nonzero"/><path fill="#11b77f" d="M 183.4375 475.796875 C 182.710938 475.796875 181.933594 475.503906 181.398438 474.921875 L 170.515625 464.085938 C 169.398438 462.96875 169.398438 461.125 170.515625 459.957031 C 171.632812 458.839844 173.480469 458.839844 174.644531 459.957031 L 185.527344 470.839844 C 186.644531 471.957031 186.644531 473.804688 185.527344 474.96875 C 184.945312 475.503906 184.167969 475.796875 183.4375 475.796875 Z M 183.4375 475.796875 " fill-opacity="1" fill-rule="nonzero"/><g clip-path="url(#f222c29adb)"><path fill="#11b77f" d="M 219.144531 533.410156 C 215.0625 533.410156 211.226562 531.804688 208.359375 528.941406 L 172.847656 493.429688 C 171.292969 491.875 170.46875 489.835938 170.46875 487.695312 C 170.46875 485.511719 171.292969 483.46875 172.847656 481.964844 L 181.980469 472.832031 C 185.136719 469.675781 190.09375 469.625 193.347656 472.6875 L 229.683594 507.128906 C 232.695312 509.996094 234.398438 513.832031 234.445312 518.011719 C 234.496094 522.140625 232.890625 526.074219 229.976562 528.988281 C 227.0625 531.855469 223.222656 533.410156 219.144531 533.410156 Z M 187.710938 476.230469 C 187.128906 476.230469 186.546875 476.476562 186.0625 476.914062 L 176.929688 486.046875 C 176.492188 486.484375 176.25 487.066406 176.25 487.695312 C 176.25 488.328125 176.492188 488.910156 176.929688 489.347656 L 212.4375 524.859375 C 216.132812 528.550781 222.105469 528.550781 225.75 524.859375 C 227.546875 523.0625 228.566406 520.632812 228.519531 518.058594 C 228.46875 515.484375 227.449219 513.105469 225.605469 511.355469 L 189.265625 476.914062 C 188.878906 476.476562 188.296875 476.230469 187.710938 476.230469 Z M 187.710938 476.230469 " fill-opacity="1" fill-rule="nonzero"/></g><path fill="#11b77f" d="M 130.390625 433.09375 C 117.808594 433.09375 107.558594 422.84375 107.558594 410.261719 C 107.558594 397.679688 117.808594 387.429688 130.390625 387.429688 C 142.972656 387.429688 153.222656 397.679688 153.222656 410.261719 C 153.222656 422.84375 142.972656 433.09375 130.390625 433.09375 Z M 130.390625 393.308594 C 121.015625 393.308594 113.386719 400.933594 113.386719 410.3125 C 113.386719 419.6875 121.015625 427.3125 130.390625 427.3125 C 139.765625 427.3125 147.390625 419.6875 147.390625 410.3125 C 147.390625 400.933594 139.765625 393.308594 130.390625 393.308594 Z M 130.390625 393.308594 " fill-opacity="1" fill-rule="nonzero"/><path fill="#11b77f" d="M 163.375 451.796875 C 161.964844 451.796875 160.75 450.777344 160.507812 449.367188 C 159.441406 443.199219 150.257812 440.816406 146.664062 440.136719 C 144.476562 442.277344 139.375 445.917969 130.390625 445.917969 C 128.785156 445.917969 127.476562 444.609375 127.476562 443.003906 C 127.476562 441.402344 128.785156 440.089844 130.390625 440.089844 C 139.523438 440.089844 143.070312 435.476562 143.214844 435.28125 C 143.847656 434.40625 144.867188 433.96875 145.933594 434.066406 C 146.664062 434.164062 164.199219 436.347656 166.242188 448.347656 C 166.53125 449.949219 165.464844 451.457031 163.859375 451.699219 C 163.714844 451.796875 163.519531 451.796875 163.375 451.796875 Z M 163.375 451.796875 " fill-opacity="1" fill-rule="nonzero"/><path fill="#11b77f" d="M 97.453125 451.796875 C 97.308594 451.796875 97.113281 451.796875 96.96875 451.75 C 95.363281 451.457031 94.296875 449.949219 94.585938 448.398438 C 96.675781 436.398438 114.164062 434.210938 114.894531 434.113281 C 115.960938 433.96875 117.03125 434.453125 117.613281 435.328125 C 117.757812 435.476562 121.257812 440.089844 130.390625 440.089844 C 131.992188 440.089844 133.304688 441.402344 133.304688 443.003906 C 133.304688 444.609375 131.992188 445.917969 130.390625 445.917969 C 121.453125 445.917969 116.351562 442.226562 114.117188 440.136719 C 110.519531 440.867188 101.339844 443.246094 100.269531 449.367188 C 100.078125 450.824219 98.8125 451.796875 97.453125 451.796875 Z M 97.453125 451.796875 " fill-opacity="1" fill-rule="nonzero"/><path fill="#11b77f" d="M 198.546875 421.777344 C 194.367188 421.777344 190.382812 420.414062 187.082031 417.890625 C 185.816406 416.917969 185.574219 415.070312 186.546875 413.808594 C 187.519531 412.546875 189.363281 412.300781 190.628906 413.273438 C 192.910156 415.023438 195.632812 415.945312 198.496094 415.945312 C 205.589844 415.945312 211.417969 410.164062 211.417969 403.023438 C 211.417969 395.882812 205.636719 390.101562 198.496094 390.101562 C 193.492188 390.101562 188.878906 393.066406 186.789062 397.632812 C 186.109375 399.089844 184.410156 399.71875 182.902344 399.039062 C 181.445312 398.359375 180.816406 396.660156 181.496094 395.152344 C 184.554688 388.5 191.210938 384.222656 198.546875 384.222656 C 208.894531 384.222656 217.296875 392.628906 217.296875 402.976562 C 217.296875 413.371094 208.894531 421.777344 198.546875 421.777344 Z M 198.546875 421.777344 " fill-opacity="1" fill-rule="nonzero"/><path fill="#11b77f" d="M 220.164062 467.585938 L 177.996094 467.585938 C 176.394531 467.585938 175.082031 466.273438 175.082031 464.671875 C 175.082031 463.066406 176.394531 461.753906 177.996094 461.753906 L 220.164062 461.753906 C 222.347656 461.753906 224.148438 459.957031 224.148438 457.773438 L 224.148438 445.382812 C 224.148438 437.222656 217.832031 430.617188 208.746094 429.257812 L 189.023438 429.257812 C 187.421875 429.257812 186.109375 427.945312 186.109375 426.34375 C 186.109375 424.738281 187.421875 423.425781 189.023438 423.425781 L 208.941406 423.425781 C 209.085938 423.425781 209.234375 423.425781 209.332031 423.476562 C 221.230469 425.175781 229.929688 434.40625 229.929688 445.433594 L 229.929688 457.820312 C 229.976562 463.164062 225.554688 467.585938 220.164062 467.585938 Z M 220.164062 467.585938 " fill-opacity="1" fill-rule="nonzero"/><path fill="#11b77f" d="M 62.234375 421.777344 C 51.886719 421.777344 43.480469 413.371094 43.480469 403.023438 C 43.480469 392.675781 51.886719 384.273438 62.234375 384.273438 C 69.519531 384.273438 76.222656 388.546875 79.285156 395.203125 C 79.964844 396.660156 79.332031 398.410156 77.875 399.089844 C 76.417969 399.769531 74.667969 399.136719 73.988281 397.679688 C 71.902344 393.113281 67.285156 390.152344 62.28125 390.152344 C 55.191406 390.152344 49.359375 395.929688 49.359375 403.074219 C 49.359375 410.214844 55.140625 415.996094 62.28125 415.996094 C 65.148438 415.996094 67.867188 415.070312 70.152344 413.324219 C 71.414062 412.351562 73.261719 412.59375 74.234375 413.855469 C 75.203125 415.121094 75.011719 416.964844 73.699219 417.9375 C 70.394531 420.414062 66.410156 421.777344 62.234375 421.777344 Z M 62.234375 421.777344 " fill-opacity="1" fill-rule="nonzero"/><g clip-path="url(#8d29a40dee)"><path fill="#11b77f" d="M 89.195312 467.585938 L 40.617188 467.585938 C 35.222656 467.585938 30.804688 463.214844 30.804688 457.773438 L 30.804688 445.382812 C 30.804688 434.355469 39.449219 425.128906 51.402344 423.425781 C 51.546875 423.425781 51.691406 423.378906 51.789062 423.378906 L 71.707031 423.378906 C 73.308594 423.378906 74.621094 424.691406 74.621094 426.292969 C 74.621094 427.894531 73.308594 429.207031 71.707031 429.207031 L 52.03125 429.207031 C 42.949219 430.566406 36.632812 437.222656 36.632812 445.335938 L 36.632812 457.722656 C 36.632812 459.910156 38.429688 461.707031 40.617188 461.707031 L 89.144531 461.707031 C 90.75 461.707031 92.0625 463.019531 92.0625 464.621094 C 92.0625 466.226562 90.796875 467.585938 89.195312 467.585938 Z M 89.195312 467.585938 " fill-opacity="1" fill-rule="nonzero"/></g><g transform="matrix(1, 0, 0, 1, 234, 325)"><g clip-path="url(#f60998f328)"><g fill="#11b77f" fill-opacity="1"><g transform="translate(0.567985, 163.115644)"><g><path d="M 105 -3 C 105 -1 99.046875 0 87.140625 0 C 75.242188 0 69.296875 -1 69.296875 -3 L 69.296875 -43.65625 L 44.546875 -43.65625 L 44.546875 -3 C 44.546875 -1 38.59375 0 26.6875 0 C 14.789062 0 8.84375 -1 8.84375 -3 L 8.84375 -120.203125 C 8.84375 -122.671875 14.789062 -123.90625 26.6875 -123.90625 C 38.59375 -123.90625 44.546875 -122.671875 44.546875 -120.203125 L 44.546875 -78.65625 L 69.296875 -78.65625 L 69.296875 -119.84375 C 69.296875 -121.5 72.238281 -122.675781 78.125 -123.375 C 81.1875 -123.613281 84.191406 -123.734375 87.140625 -123.734375 L 96.15625 -123.375 C 102.050781 -122.675781 105 -121.5 105 -119.84375 Z M 105 -3 "/></g></g></g><g fill="#11b77f" fill-opacity="1"><g transform="translate(114.395864, 163.115644)"><g><path d="M 40.296875 -1.0625 C 40.296875 -0.113281 34.90625 0.359375 24.125 0.359375 C 13.34375 0.359375 7.953125 -0.0546875 7.953125 -0.890625 L 7.953125 -87.671875 C 7.953125 -88.492188 13.34375 -88.90625 24.125 -88.90625 C 34.90625 -88.90625 40.296875 -88.554688 40.296875 -87.859375 Z M 40.296875 -98.28125 C 40.296875 -97.457031 34.90625 -97.046875 24.125 -97.046875 C 13.34375 -97.046875 7.953125 -97.398438 7.953125 -98.109375 L 7.953125 -123.5625 C 7.953125 -124.738281 13.34375 -125.328125 24.125 -125.328125 C 34.90625 -125.328125 40.296875 -124.972656 40.296875 -124.265625 Z M 40.296875 -98.28125 "/></g></g></g><g fill="#11b77f" fill-opacity="1"><g transform="translate(162.648957, 163.115644)"><g><path d="M 46.671875 -0.171875 C 46.671875 0.648438 41.304688 1.0625 30.578125 1.0625 C 19.859375 0.820312 14.5 0.347656 14.5 -0.359375 L 14.5 -59.046875 L 9.71875 -59.046875 C 7.832031 -59.046875 6.328125 -60.191406 5.203125 -62.484375 C 4.085938 -64.785156 3.53125 -67.644531 3.53125 -71.0625 C 3.53125 -83.789062 7.300781 -90.15625 14.84375 -90.15625 C 20.144531 -90.15625 24.5625 -88.53125 28.09375 -85.28125 C 31.632812 -82.039062 33.40625 -78.359375 33.40625 -74.234375 C 35.882812 -79.066406 39.210938 -82.925781 43.390625 -85.8125 C 47.578125 -88.707031 51.851562 -90.15625 56.21875 -90.15625 C 63.050781 -90.15625 67.171875 -88.382812 68.578125 -84.84375 C 68.929688 -83.90625 69.109375 -82.519531 69.109375 -80.6875 C 69.109375 -78.863281 68.546875 -75.59375 67.421875 -70.875 C 66.304688 -66.164062 65.160156 -62.75 63.984375 -60.625 C 62.804688 -58.507812 62.097656 -57.453125 61.859375 -57.453125 C 61.628906 -57.453125 60.539062 -57.890625 58.59375 -58.765625 C 56.65625 -59.648438 54.921875 -60.09375 53.390625 -60.09375 C 48.910156 -60.09375 46.671875 -56.5625 46.671875 -49.5 Z M 46.671875 -0.171875 "/></g></g></g><g fill="#11b77f" fill-opacity="1"><g transform="translate(232.642493, 163.115644)"><g><path d="M 74.765625 -4.765625 C 67.347656 -0.410156 57.804688 1.765625 46.140625 1.765625 C 34.472656 1.765625 24.628906 -2.207031 16.609375 -10.15625 C 8.597656 -18.113281 4.59375 -29.132812 4.59375 -43.21875 C 4.59375 -57.300781 8.453125 -68.644531 16.171875 -77.25 C 23.890625 -85.851562 33.640625 -90.15625 45.421875 -90.15625 C 57.210938 -90.15625 66.316406 -87.148438 72.734375 -81.140625 C 79.160156 -75.128906 82.375 -67.820312 82.375 -59.21875 C 82.375 -40.125 71.414062 -30.578125 49.5 -30.578125 L 37.296875 -30.578125 C 37.296875 -27.046875 38.265625 -24.601562 40.203125 -23.25 C 42.148438 -21.894531 45.007812 -21.21875 48.78125 -21.21875 C 57.03125 -21.21875 64.867188 -23.101562 72.296875 -26.875 C 72.410156 -26.988281 72.941406 -26.160156 73.890625 -24.390625 C 76.710938 -19.328125 78.125 -15.054688 78.125 -11.578125 C 78.125 -8.097656 77.003906 -5.828125 74.765625 -4.765625 Z M 52.671875 -55.859375 C 52.671875 -60.804688 50.253906 -63.28125 45.421875 -63.28125 C 43.179688 -63.28125 41.265625 -62.601562 39.671875 -61.25 C 38.085938 -59.894531 37.296875 -57.921875 37.296875 -55.328125 L 37.296875 -49.84375 L 46.84375 -49.84375 C 50.726562 -49.84375 52.671875 -51.847656 52.671875 -55.859375 Z M 52.671875 -55.859375 "/></g></g></g></g></g><g transform="matrix(1, 0, 0, 1, 552, 328)"><g clip-path="url(#a7e97a5bdb)"><g fill="#52e1b1" fill-opacity="1"><g transform="translate(0.570737, 161.403098)"><g><path d="M 18.953125 -63.6875 C 15.671875 -69.539062 14.03125 -74.304688 14.03125 -77.984375 C 14.03125 -81.671875 15.023438 -84.046875 17.015625 -85.109375 C 23.679688 -88.023438 32.832031 -89.484375 44.46875 -89.484375 C 56.113281 -89.484375 64.332031 -86.765625 69.125 -81.328125 C 73.925781 -75.890625 76.328125 -67.847656 76.328125 -57.203125 L 76.328125 -29.484375 L 82.296875 -29.484375 C 84.285156 -29.484375 85.832031 -28.3125 86.9375 -25.96875 C 88.050781 -23.625 88.609375 -20.40625 88.609375 -16.3125 C 88.609375 -12.21875 87.582031 -8.179688 85.53125 -4.203125 C 83.488281 -0.234375 80.710938 1.75 77.203125 1.75 C 70.890625 1.75 65.800781 0.0546875 61.9375 -3.328125 C 60.1875 -4.734375 58.84375 -6.429688 57.90625 -8.421875 C 52.519531 -1.640625 44.15625 1.75 32.8125 1.75 C 24.269531 1.75 17.070312 -1.289062 11.21875 -7.375 C 5.375 -13.457031 2.453125 -20.648438 2.453125 -28.953125 C 2.453125 -48.015625 13.859375 -57.546875 36.671875 -57.546875 L 46.328125 -57.546875 L 46.328125 -59.3125 C 46.328125 -62.351562 45.828125 -64.3125 44.828125 -65.1875 C 43.835938 -66.0625 41.53125 -66.5 37.90625 -66.5 C 33.457031 -66.5 27.140625 -65.5625 18.953125 -63.6875 Z M 32.984375 -31.40625 C 32.984375 -28.832031 33.6875 -26.875 35.09375 -25.53125 C 36.5 -24.1875 38.28125 -23.515625 40.4375 -23.515625 C 42.601562 -23.515625 44.566406 -24.390625 46.328125 -26.140625 L 46.328125 -39.65625 L 41.40625 -39.65625 C 35.789062 -39.65625 32.984375 -36.90625 32.984375 -31.40625 Z M 32.984375 -31.40625 "/></g></g></g><g fill="#52e1b1" fill-opacity="1"><g transform="translate(91.286917, 161.403098)"><g><path d="M 39.828125 -1.40625 C 39.828125 -0.351562 33.863281 0.171875 21.9375 0.171875 C 12.570312 0.0546875 7.890625 -0.410156 7.890625 -1.234375 L 7.890625 -120.71875 C 7.890625 -122.476562 13.566406 -123.359375 24.921875 -123.359375 C 34.859375 -123.003906 39.828125 -122.414062 39.828125 -121.59375 Z M 39.828125 -1.40625 "/></g></g></g><g fill="#52e1b1" fill-opacity="1"><g transform="translate(139.013802, 161.403098)"><g><path d="M 39.828125 -1.40625 C 39.828125 -0.351562 33.863281 0.171875 21.9375 0.171875 C 12.570312 0.0546875 7.890625 -0.410156 7.890625 -1.234375 L 7.890625 -120.71875 C 7.890625 -122.476562 13.566406 -123.359375 24.921875 -123.359375 C 34.859375 -123.003906 39.828125 -122.414062 39.828125 -121.59375 Z M 39.828125 -1.40625 "/></g></g></g></g></g></svg>